<svg width="11" height="12" viewBox="0 0 11 12" fill="none" xmlns="http://www.w3.org/2000/svg">
<g clip-path="url(#clip0_120_2)">
<path fill-rule="evenodd" clip-rule="evenodd" d="M2.42178 5.56641H8.61262V3.64648H6.64029C6.43323 3.64648 6.14506 3.53223 6.00861 3.39258C5.87216 3.25293 5.78914 3.00098 5.78914 2.79004V0.746094H0.777694C0.760518 0.746094 0.74716 0.754883 0.738572 0.763672C0.724259 0.773438 0.720442 0.786133 0.720442 0.804688V11.2002C0.720442 11.2139 0.72903 11.2314 0.737618 11.2402C0.746206 11.2539 0.764335 11.2578 0.77674 11.2578C2.9504 11.2578 6.31968 11.2578 8.55441 11.2578C8.57159 11.2578 8.57063 11.249 8.58017 11.2402C8.59353 11.2314 8.61166 11.2129 8.61166 11.2002V10.1104H2.42178C2.02674 10.1104 1.7004 9.77832 1.7004 9.37207V6.30371C1.7004 5.89844 2.02483 5.56641 2.42178 5.56641ZM4.94563 6.58691H5.69372V7.92774C5.69372 8.20899 5.66987 8.42383 5.62025 8.57129C5.57159 8.71777 5.4733 8.84277 5.3254 8.94531C5.1775 9.04688 4.98857 9.09863 4.75766 9.09863C4.51434 9.09863 4.3254 9.06445 4.19182 8.99707C4.05727 8.92969 3.95422 8.83106 3.88075 8.70117C3.80727 8.57227 3.76434 8.41113 3.75193 8.2207L4.46281 8.12207C4.46376 8.23047 4.4733 8.31055 4.49048 8.36328C4.50766 8.41602 4.53724 8.45801 4.58018 8.49121C4.6088 8.5127 4.64888 8.52246 4.70231 8.52246C4.78628 8.52246 4.84735 8.49121 4.88647 8.42774C4.92559 8.36426 4.94468 8.25781 4.94468 8.10742L4.94563 6.58691ZM6.06777 8.23926L6.77483 8.19336C6.7901 8.31055 6.82159 8.40039 6.86834 8.46094C6.94563 8.56055 7.05441 8.61035 7.19754 8.61035C7.30346 8.61035 7.38552 8.58496 7.44277 8.53418C7.50098 8.4834 7.5296 8.42383 7.5296 8.35645C7.5296 8.29297 7.50288 8.23535 7.4485 8.18457C7.39411 8.13379 7.2672 8.08691 7.06777 8.04102C6.74048 7.96582 6.50861 7.86621 6.3693 7.74121C6.22903 7.61719 6.15842 7.45801 6.15842 7.26563C6.15842 7.13965 6.19468 7.01953 6.26624 6.90723C6.33781 6.79395 6.44563 6.70508 6.59067 6.64063C6.73475 6.57617 6.93323 6.54395 7.18418 6.54395C7.49239 6.54395 7.72712 6.60254 7.88934 6.7207C8.05155 6.83789 8.14697 7.02441 8.17846 7.28125L7.47617 7.32422C7.45804 7.21192 7.41796 7.13086 7.3588 7.08008C7.29869 7.0293 7.21567 7.00391 7.11071 7.00391C7.02388 7.00391 6.95804 7.02246 6.9151 7.06055C6.87121 7.09766 6.84926 7.14355 6.84926 7.19824C6.84926 7.2373 6.86739 7.27246 6.90269 7.30371C6.93704 7.33692 7.02006 7.36621 7.15174 7.39453C7.47712 7.4668 7.7109 7.53906 7.85117 7.61328C7.99239 7.68652 8.09449 7.77734 8.15937 7.88672C8.2233 7.99512 8.25575 8.11719 8.25575 8.25195C8.25575 8.41016 8.21281 8.55566 8.12788 8.69043C8.04201 8.82422 7.92273 8.92578 7.76911 8.99414C7.61548 9.06348 7.42273 9.09766 7.18895 9.09766C6.77865 9.09766 6.4943 9.0166 6.33685 8.85547C6.1775 8.69336 6.08781 8.48828 6.06777 8.23926ZM9.33113 5.56641H10.2786C10.6756 5.56641 11 5.89941 11 6.30469V9.37305C11 9.77832 10.6746 10.1113 10.2786 10.1113H9.33113V11.4346C9.33113 11.5918 9.26911 11.7314 9.16891 11.835C9.06777 11.9385 8.93132 12.001 8.77769 12.001C5.96853 12.001 3.37788 12.001 0.554412 12.001C0.400786 12.001 0.264335 11.9385 0.16319 11.835C0.0620453 11.7314 0.000976562 11.5918 0.000976562 11.4346V0.571289C0.000976562 0.414063 0.0629995 0.274414 0.16319 0.170898C0.264335 0.0673828 0.404602 0.00488281 0.554412 0.00488281H6.15746C6.16987 0 6.18323 0 6.19659 0C6.25766 0 6.31968 0.0273438 6.36357 0.0673828H6.37216C6.38075 0.0722656 6.38552 0.0761719 6.39411 0.0849609L9.25575 3.0498C9.30441 3.09961 9.33972 3.16699 9.33972 3.24316C9.33972 3.26563 9.33495 3.2832 9.33113 3.30664V5.56641ZM6.44277 2.73145V0.873047L8.48762 2.99219H6.69754C6.62693 2.99219 6.56586 2.96094 6.5172 2.91602C6.4733 2.87109 6.44277 2.80371 6.44277 2.73145Z" fill="#f7df1e"/>
</g>
<defs>
<clipPath id="clip0_120_2">
<rect width="11" height="12" fill="#f7df1e"/>
</clipPath>
</defs>
</svg>
