<svg width="13" height="15" viewBox="0 0 13 15" fill="none" xmlns="http://www.w3.org/2000/svg">
<path d="M11.1042 5.04526V4.47368C11.1042 3.28719 10.6191 2.14929 9.75564 1.31031C8.89219 0.471333 7.7211 0 6.5 0C5.2789 0 4.10781 0.471333 3.24436 1.31031C2.38091 2.14929 1.89583 3.28719 1.89583 4.47368V5.04526C1.36172 5.14907 0.881052 5.42932 0.535465 5.83841C0.189878 6.2475 0.000678912 6.76022 0 7.28947V12.7105C0.000573683 13.3176 0.249005 13.8996 0.690763 14.3288C1.13252 14.7581 1.73151 14.9994 2.35625 15H10.6438C11.2685 14.9994 11.8675 14.7581 12.3092 14.3288C12.751 13.8996 12.9994 13.3176 13 12.7105V7.28947C12.9993 6.76022 12.8101 6.2475 12.4645 5.83841C12.1189 5.42932 11.6383 5.14907 11.1042 5.04526ZM6.5 1.57895C7.28982 1.57992 8.047 1.88522 8.60548 2.42787C9.16397 2.97053 9.47816 3.70625 9.47917 4.47368V5H3.52083V4.47368C3.52184 3.70625 3.83603 2.97053 4.39452 2.42787C4.953 1.88522 5.71018 1.57992 6.5 1.57895Z" fill="white"/>
</svg>
