<svg width="756" height="629" viewBox="0 0 756 629" fill="none" xmlns="http://www.w3.org/2000/svg">
<path d="M155.313 6.50421C155.313 4.91291 155.945 3.3868 157.07 2.26158C158.196 1.13636 159.722 0.504211 161.313 0.504211H309.313C310.904 0.504211 312.43 1.13636 313.556 2.26158C314.681 3.3868 315.313 4.91291 315.313 6.50421V54.5042C315.313 56.0955 314.681 57.6216 313.556 58.7469C312.43 59.8721 310.904 60.5042 309.313 60.5042H161.313C159.722 60.5042 158.196 59.8721 157.07 58.7469C155.945 57.6216 155.313 56.0955 155.313 54.5042V6.50421Z" fill="#E2E2F0"/>
<path d="M182.997 35.7778L183.121 22.321C181.701 27.0123 179.787 31.2716 178.182 35.7778H176.763L171.763 22.321L171.824 35.7778H170.034V20.4691H172.75L177.503 33.4938C178.8 28.8642 180.652 24.8518 182.195 20.4691H184.849V35.7778H182.997Z" fill="black"/>
<path d="M188.121 21.5185V19.6666H190.096V21.5185H188.121ZM188.121 35.7777V24.0493H190.096V35.7777H188.121Z" fill="black"/>
<path d="M196.763 23.8024C198.676 23.8024 199.726 24.6049 200.466 25.8395L200.405 19.6666H202.38L202.442 35.7777H200.59C200.466 35.1605 200.59 34.358 200.405 33.8642C199.787 35.2839 198.676 36.0247 196.763 36.0247C193.491 36.0247 192.503 33.6172 192.442 29.9753C192.442 25.9012 193.861 23.8024 196.763 23.8024ZM197.318 25.2839C194.849 25.2839 194.479 27.3827 194.479 29.9135C194.479 32.3827 194.849 34.4814 197.256 34.4814C199.849 34.4814 200.405 32.5061 200.405 29.7901C200.405 27.1975 199.849 25.2222 197.318 25.2839Z" fill="black"/>
<path d="M209.108 23.8024C211.022 23.8024 212.071 24.6049 212.812 25.8395L212.75 19.6666H214.726L214.787 35.7777H212.936C212.812 35.1605 212.936 34.358 212.75 33.8642C212.133 35.2839 211.022 36.0247 209.108 36.0247C205.837 36.0247 204.849 33.6172 204.787 29.9753C204.787 25.9012 206.207 23.8024 209.108 23.8024ZM209.664 25.2839C207.195 25.2839 206.824 27.3827 206.824 29.9135C206.824 32.3827 207.195 34.4814 209.602 34.4814C212.195 34.4814 212.75 32.5061 212.75 29.7901C212.75 27.1975 212.195 25.2222 209.664 25.2839Z" fill="black"/>
<path d="M217.689 35.7777V19.6666H219.664V35.7777H217.689Z" fill="black"/>
<path d="M227.256 23.8024C231.145 23.8024 232.565 26.395 232.442 30.3456H224.108C224.108 32.8148 224.973 34.4814 227.38 34.5432C228.985 34.6049 230.034 33.8024 230.405 32.753L232.133 33.2469C231.454 34.9753 229.849 36.0247 227.38 36.0247C223.8 36.0247 221.948 33.7407 222.01 29.8518C222.071 26.0864 223.615 23.8024 227.256 23.8024ZM230.466 28.8024C230.837 25.0987 225.775 24.0493 224.479 27.074C224.294 27.5061 224.108 28.1234 224.108 28.8024H230.466Z" fill="black"/>
<path d="M246.145 35.7777H243.923L241.454 25.6543L238.923 35.7777H236.701L233.368 24.0493H235.343L237.75 34.1728L240.405 24.0493H242.503L245.034 34.1728L247.627 24.0493H249.54" fill="black"/>
<path d="M258.121 33.5555C257.195 34.8518 256.207 36.0864 253.923 36.0247C251.701 35.9629 250.343 34.7284 250.343 32.5061C250.281 28.5555 254.232 28.6172 258.059 28.6172C258.244 26.4568 257.503 25.2839 255.528 25.2839C254.047 25.3456 252.997 25.716 252.936 27.1975L250.898 27.0123C251.207 24.7284 252.936 23.8024 255.59 23.8024C258.368 23.8024 260.034 25.037 260.034 27.753V32.8148C259.973 34.0493 260.466 34.7901 261.763 34.4814V35.716C259.849 36.2716 257.997 35.5926 258.121 33.5555ZM252.38 32.5061C252.38 33.7407 253.121 34.5432 254.355 34.5432C256.886 34.358 258.244 32.753 258.059 29.9753C255.405 30.0987 252.38 29.6666 252.38 32.5061Z" fill="black"/>
<path d="M268.8 25.716C263.985 24.7284 265.528 31.3333 265.281 35.7777H263.306L263.244 24.0493H265.096C265.158 24.7901 265.034 25.8395 265.219 26.4568C265.59 24.7901 266.639 23.4321 268.8 23.9259V25.716Z" fill="black"/>
<path d="M275.281 23.8024C279.17 23.8024 280.59 26.395 280.466 30.3456H272.133C272.133 32.8148 272.997 34.4814 275.405 34.5432C277.01 34.6049 278.059 33.8024 278.429 32.753L280.158 33.2469C279.479 34.9753 277.874 36.0247 275.405 36.0247C271.824 36.0247 269.973 33.7407 270.034 29.8518C270.096 26.0864 271.639 23.8024 275.281 23.8024ZM278.491 28.8024C278.861 25.0987 273.8 24.0493 272.503 27.074C272.318 27.5061 272.133 28.1234 272.133 28.8024H278.491Z" fill="black"/>
<path d="M300.281 35.7778L298.553 31.3333H291.578L289.849 35.7778H287.689L293.923 20.4691H296.269L302.38 35.7778H300.281ZM297.936 29.6666L295.034 22.0741C294.294 24.8518 293.121 27.1358 292.195 29.6666H297.936Z" fill="black"/>
<path d="M235.313 142.464V138.414M235.313 130.314V122.214M235.313 114.114V106.034M235.313 97.9342V89.8342M235.313 81.7342V73.6342M235.313 65.5342V61.5042" stroke="white"/>
<path d="M236.313 143.464H234.313V142.444H236.313V143.464ZM236.313 61.5342H234.313V60.5042H236.313V61.5342Z" fill="white" stroke="white" stroke-width="0.05"/>
<path d="M235.313 440.604V436.654M235.313 428.754V420.874M235.313 412.974V405.074M235.313 397.194V389.294M235.313 381.394V373.514M235.313 365.614V357.714M235.313 349.834V341.934M235.313 334.054V326.154M235.313 318.254V310.374M235.313 302.474V298.534" stroke="white"/>
<path d="M236.313 441.604H234.313V440.574H236.313V441.604ZM236.313 298.554H234.313V297.534H236.313V298.554Z" fill="white" stroke="white" stroke-width="0.05"/>
<path d="M235.313 242.464V238.804M235.313 231.484V224.164M235.313 216.844V209.524M235.313 202.204V198.544" stroke="#3A414A" stroke-width="2"/>
<path d="M236.313 243.464H234.313V242.444H236.313V243.464ZM236.313 198.564H234.313V197.534H236.313V198.564Z" fill="#3A414A" stroke="#3A414A" stroke-width="0.05"/>
<path d="M155.313 149.464C155.313 147.873 155.945 146.347 157.07 145.222C158.196 144.096 159.722 143.464 161.313 143.464H309.313C310.904 143.464 312.43 144.096 313.556 145.222C314.681 146.347 315.313 147.873 315.313 149.464V191.534C315.313 193.126 314.681 194.652 313.556 195.777C312.43 196.902 310.904 197.534 309.313 197.534H161.313C159.722 197.534 158.196 196.902 157.07 195.777C155.945 194.652 155.313 193.126 155.313 191.534V149.464Z" fill="white"/>
<path d="M182.627 164.75C180.158 164.75 179.664 166.787 179.664 169.256C179.664 171.725 180.219 173.885 182.627 173.885C184.108 173.885 185.158 173.021 185.281 171.54L187.257 171.663C186.886 173.947 185.343 175.429 182.689 175.429C179.047 175.429 177.997 172.898 177.627 169.318C177.01 163.577 183.861 161.231 186.701 165.367C186.948 165.799 187.01 166.231 187.133 166.725L185.158 166.91C184.911 165.614 184.17 164.75 182.627 164.75Z" fill="#3A414A"/>
<path d="M193.985 163.206C197.812 163.145 199.232 165.49 199.232 169.318C199.294 173.206 197.565 175.429 193.923 175.429C190.281 175.429 188.8 173.021 188.738 169.318C188.738 165.243 190.466 163.206 193.985 163.206ZM193.923 173.947C196.639 174.009 197.195 172.034 197.195 169.318C197.195 166.663 196.701 164.688 194.047 164.688C191.392 164.688 190.775 166.663 190.775 169.318C190.775 171.972 191.392 173.885 193.923 173.947Z" fill="#3A414A"/>
<path d="M205.405 163.206C207.318 163.206 208.368 164.009 209.108 165.243L209.047 159.071H211.022L211.084 175.182H209.232C209.108 174.564 209.232 173.762 209.047 173.268C208.429 174.688 207.318 175.429 205.405 175.429C202.133 175.429 201.145 173.021 201.084 169.379C201.084 165.305 202.503 163.206 205.405 163.206ZM205.96 164.688C203.491 164.688 203.121 166.787 203.121 169.318C203.121 171.787 203.491 173.885 205.898 173.885C208.491 173.885 209.047 171.91 209.047 169.194C209.047 166.601 208.491 164.626 205.96 164.688Z" fill="#3A414A"/>
<path d="M218.676 163.206C222.565 163.206 223.985 165.799 223.861 169.75H215.528C215.528 172.219 216.392 173.885 218.8 173.947C220.405 174.009 221.454 173.206 221.824 172.157L223.553 172.651C222.874 174.379 221.269 175.429 218.8 175.429C215.219 175.429 213.368 173.145 213.429 169.256C213.491 165.49 215.034 163.206 218.676 163.206ZM221.886 168.206C222.257 164.503 217.195 163.453 215.898 166.478C215.713 166.91 215.528 167.527 215.528 168.206H221.886Z" fill="#3A414A"/>
<path d="M238.121 163.206C241.392 163.206 242.38 165.614 242.442 169.256C242.442 173.33 241.022 175.429 238.121 175.429C236.207 175.367 235.096 174.75 234.479 173.33L234.355 175.182H232.442L232.503 159.071H234.479V165.305C235.096 163.885 236.207 163.206 238.121 163.206ZM237.627 173.947C240.096 173.947 240.405 171.848 240.405 169.318C240.405 166.848 240.096 164.688 237.627 164.75C235.034 164.75 234.479 166.725 234.479 169.441C234.479 172.095 235.096 173.947 237.627 173.947Z" fill="#3A414A"/>
<path d="M249.54 163.206C253.429 163.206 254.849 165.799 254.726 169.75H246.392C246.392 172.219 247.256 173.885 249.664 173.947C251.269 174.009 252.318 173.206 252.689 172.157L254.417 172.651C253.738 174.379 252.133 175.429 249.664 175.429C246.084 175.429 244.232 173.145 244.294 169.256C244.355 165.49 245.898 163.206 249.54 163.206ZM252.75 168.206C253.121 164.503 248.059 163.453 246.763 166.478C246.577 166.91 246.392 167.527 246.392 168.206H252.75Z" fill="#3A414A"/>
<path d="M261.948 160.737C260.034 160.182 259.355 161.355 259.602 163.453H261.948V164.873H259.602V175.182H257.689V164.873H256.022V163.453H257.689C257.256 160.243 258.738 158.392 261.948 159.256V160.737Z" fill="#3A414A"/>
<path d="M268.059 163.206C271.886 163.145 273.306 165.49 273.306 169.318C273.368 173.206 271.639 175.429 267.997 175.429C264.355 175.429 262.874 173.021 262.812 169.318C262.812 165.243 264.54 163.206 268.059 163.206ZM267.997 173.947C270.713 174.009 271.269 172.034 271.269 169.318C271.269 166.663 270.775 164.688 268.121 164.688C265.466 164.688 264.849 166.663 264.849 169.318C264.849 171.972 265.466 173.885 267.997 173.947Z" fill="#3A414A"/>
<path d="M281.269 165.12C276.454 164.132 277.997 170.737 277.75 175.182H275.775L275.713 163.453H277.565C277.627 164.194 277.503 165.243 277.689 165.861C278.059 164.194 279.108 162.836 281.269 163.33V165.12Z" fill="#3A414A"/>
<path d="M287.75 163.206C291.639 163.206 293.059 165.799 292.936 169.75H284.602C284.602 172.219 285.466 173.885 287.874 173.947C289.479 174.009 290.528 173.206 290.898 172.157L292.627 172.651C291.948 174.379 290.343 175.429 287.874 175.429C284.294 175.429 282.442 173.145 282.503 169.256C282.565 165.49 284.108 163.206 287.75 163.206ZM290.96 168.206C291.331 164.503 286.269 163.453 284.973 166.478C284.787 166.91 284.602 167.527 284.602 168.206H290.96Z" fill="#3A414A"/>
<path d="M155.313 249.464C155.313 247.873 155.945 246.347 157.07 245.222C158.196 244.096 159.722 243.464 161.313 243.464H309.313C310.904 243.464 312.43 244.096 313.556 245.222C314.681 246.347 315.313 247.873 315.313 249.464V291.534C315.313 293.126 314.681 294.652 313.556 295.777C312.43 296.902 310.904 297.534 309.313 297.534H161.313C159.722 297.534 158.196 296.902 157.07 295.777C155.945 294.652 155.313 293.126 155.313 291.534V249.464Z" fill="#FCB045"/>
<path d="M186.732 272.96C185.806 274.256 184.818 275.49 182.534 275.429C180.312 275.367 178.954 274.132 178.954 271.91C178.892 267.96 182.843 268.021 186.67 268.021C186.855 265.861 186.115 264.688 184.139 264.688C182.658 264.75 181.608 265.12 181.547 266.601L179.51 266.416C179.818 264.132 181.547 263.206 184.201 263.206C186.979 263.206 188.645 264.441 188.645 267.157V272.219C188.584 273.453 189.077 274.194 190.374 273.885V275.12C188.46 275.676 186.608 274.997 186.732 272.96ZM180.991 271.91C180.991 273.145 181.732 273.947 182.966 273.947C185.497 273.762 186.855 272.157 186.67 269.379C184.016 269.503 180.991 269.071 180.991 271.91Z" fill="black"/>
<path d="M203.09 275.182H200.868L198.398 265.058L195.868 275.182H193.645L190.312 263.453H192.287L194.695 273.577L197.349 263.453H199.448L201.979 273.577L204.571 263.453H206.485" fill="black"/>
<path d="M215.065 272.96C214.139 274.256 213.152 275.49 210.868 275.429C208.645 275.367 207.287 274.132 207.287 271.91C207.226 267.96 211.176 268.021 215.003 268.021C215.189 265.861 214.448 264.688 212.473 264.688C210.991 264.75 209.942 265.12 209.88 266.601L207.843 266.416C208.152 264.132 209.88 263.206 212.534 263.206C215.312 263.206 216.979 264.441 216.979 267.157V272.219C216.917 273.453 217.411 274.194 218.707 273.885V275.12C216.794 275.676 214.942 274.997 215.065 272.96ZM209.324 271.91C209.324 273.145 210.065 273.947 211.3 273.947C213.831 273.762 215.189 272.157 215.003 269.379C212.349 269.503 209.324 269.071 209.324 271.91Z" fill="black"/>
<path d="M220.189 260.922V259.071H222.164V260.922H220.189ZM220.189 275.182V263.453H222.164V275.182H220.189Z" fill="black"/>
<path d="M227.226 272.28C227.102 273.762 228.337 274.071 229.571 273.639V275.12C227.534 275.737 225.25 275.429 225.25 272.713V264.873H223.892V263.453H225.374L225.929 260.799H227.226V263.453H229.386V264.873H227.226V272.28Z" fill="black"/>
<path d="M243.152 263.206C248.645 262.959 246.423 270.367 246.855 275.182H244.88V267.713C244.88 265.799 244.386 264.688 242.473 264.75C238.028 264.873 239.757 271.046 239.448 275.182H237.473L237.411 263.453H239.263C239.324 264.071 239.201 264.935 239.386 265.429C240.065 264.071 241.176 263.268 243.152 263.206Z" fill="black"/>
<path d="M254.448 263.206C258.337 263.206 259.757 265.799 259.633 269.75H251.3C251.3 272.219 252.164 273.885 254.571 273.947C256.176 274.009 257.226 273.206 257.596 272.157L259.324 272.651C258.645 274.379 257.04 275.429 254.571 275.429C250.991 275.429 249.139 273.145 249.201 269.256C249.263 265.49 250.806 263.206 254.448 263.206ZM257.658 268.206C258.028 264.503 252.966 263.453 251.67 266.478C251.485 266.91 251.3 267.527 251.3 268.206H257.658Z" fill="black"/>
<path d="M269.324 275.182L266.176 270.367L262.966 275.182H260.868L265.065 269.132L261.053 263.453H263.213L266.176 268.021L269.078 263.453H271.238L267.287 269.132L271.485 275.182H269.324Z" fill="black"/>
<path d="M275.374 272.28C275.25 273.762 276.485 274.071 277.72 273.639V275.12C275.682 275.737 273.399 275.429 273.399 272.713V264.873H272.04V263.453H273.522L274.078 260.799H275.374V263.453H277.534V264.873H275.374V272.28Z" fill="black"/>
<path d="M283.275 279.811C280.929 277.219 279.263 274.132 279.263 269.379C279.263 264.688 280.991 261.601 283.275 259.071H285.189C282.843 261.601 281.238 264.75 281.238 269.441C281.238 274.132 282.843 277.28 285.189 279.811H283.275Z" fill="black"/>
<path d="M287.287 259.071C289.633 261.601 291.3 264.75 291.3 269.441C291.3 274.132 289.633 277.28 287.287 279.811H285.374C287.658 277.28 289.324 274.132 289.324 269.441C289.324 264.75 287.658 261.601 285.374 259.071H287.287Z" fill="black"/>
<path d="M375.313 6.50421C375.313 4.91291 375.945 3.3868 377.07 2.26158C378.196 1.13636 379.722 0.504211 381.313 0.504211H529.313C530.904 0.504211 532.43 1.13636 533.556 2.26158C534.681 3.3868 535.313 4.91291 535.313 6.50421V54.5042C535.313 56.0955 534.681 57.6216 533.556 58.7469C532.43 59.8721 530.904 60.5042 529.313 60.5042H381.313C379.722 60.5042 378.196 59.8721 377.07 58.7469C375.945 57.6216 375.313 56.0955 375.313 54.5042V6.50421Z" fill="#E2E2F0"/>
<path d="M402.997 35.7778L403.121 22.321C401.701 27.0123 399.787 31.2716 398.182 35.7778H396.763L391.763 22.321L391.824 35.7778H390.034V20.4691H392.75L397.503 33.4938C398.8 28.8642 400.652 24.8518 402.195 20.4691H404.849V35.7778H402.997Z" fill="black"/>
<path d="M408.121 21.5185V19.6666H410.096V21.5185H408.121ZM408.121 35.7777V24.0493H410.096V35.7777H408.121Z" fill="black"/>
<path d="M416.763 23.8024C418.676 23.8024 419.726 24.6049 420.466 25.8395L420.405 19.6666H422.38L422.442 35.7777H420.59C420.466 35.1605 420.59 34.358 420.405 33.8642C419.787 35.2839 418.676 36.0247 416.763 36.0247C413.491 36.0247 412.503 33.6172 412.442 29.9753C412.442 25.9012 413.861 23.8024 416.763 23.8024ZM417.318 25.2839C414.849 25.2839 414.479 27.3827 414.479 29.9135C414.479 32.3827 414.849 34.4814 417.256 34.4814C419.849 34.4814 420.405 32.5061 420.405 29.7901C420.405 27.1975 419.849 25.2222 417.318 25.2839Z" fill="black"/>
<path d="M429.108 23.8024C431.022 23.8024 432.071 24.6049 432.812 25.8395L432.75 19.6666H434.726L434.787 35.7777H432.936C432.812 35.1605 432.936 34.358 432.75 33.8642C432.133 35.2839 431.022 36.0247 429.108 36.0247C425.837 36.0247 424.849 33.6172 424.787 29.9753C424.787 25.9012 426.207 23.8024 429.108 23.8024ZM429.664 25.2839C427.195 25.2839 426.824 27.3827 426.824 29.9135C426.824 32.3827 427.195 34.4814 429.602 34.4814C432.195 34.4814 432.75 32.5061 432.75 29.7901C432.75 27.1975 432.195 25.2222 429.664 25.2839Z" fill="black"/>
<path d="M437.689 35.7777V19.6666H439.664V35.7777H437.689Z" fill="black"/>
<path d="M447.256 23.8024C451.145 23.8024 452.565 26.395 452.442 30.3456H444.108C444.108 32.8148 444.973 34.4814 447.38 34.5432C448.985 34.6049 450.034 33.8024 450.405 32.753L452.133 33.2469C451.454 34.9753 449.849 36.0247 447.38 36.0247C443.8 36.0247 441.948 33.7407 442.01 29.8518C442.071 26.0864 443.615 23.8024 447.256 23.8024ZM450.466 28.8024C450.837 25.0987 445.775 24.0493 444.479 27.074C444.294 27.5061 444.108 28.1234 444.108 28.8024H450.466Z" fill="black"/>
<path d="M466.145 35.7777H463.923L461.454 25.6543L458.923 35.7777H456.701L453.368 24.0493H455.343L457.75 34.1728L460.405 24.0493H462.503L465.034 34.1728L467.627 24.0493H469.54" fill="black"/>
<path d="M478.121 33.5555C477.195 34.8518 476.207 36.0864 473.923 36.0247C471.701 35.9629 470.343 34.7284 470.343 32.5061C470.281 28.5555 474.232 28.6172 478.059 28.6172C478.244 26.4568 477.503 25.2839 475.528 25.2839C474.047 25.3456 472.997 25.716 472.936 27.1975L470.898 27.0123C471.207 24.7284 472.936 23.8024 475.59 23.8024C478.368 23.8024 480.034 25.037 480.034 27.753V32.8148C479.973 34.0493 480.466 34.7901 481.763 34.4814V35.716C479.849 36.2716 477.997 35.5926 478.121 33.5555ZM472.38 32.5061C472.38 33.7407 473.121 34.5432 474.355 34.5432C476.886 34.358 478.244 32.753 478.059 29.9753C475.405 30.0987 472.38 29.6666 472.38 32.5061Z" fill="black"/>
<path d="M488.8 25.716C483.985 24.7284 485.528 31.3333 485.281 35.7777H483.306L483.244 24.0493H485.096C485.158 24.7901 485.034 25.8395 485.219 26.4568C485.59 24.7901 486.639 23.4321 488.8 23.9259V25.716Z" fill="black"/>
<path d="M495.281 23.8024C499.17 23.8024 500.59 26.395 500.466 30.3456H492.133C492.133 32.8148 492.997 34.4814 495.405 34.5432C497.01 34.6049 498.059 33.8024 498.429 32.753L500.158 33.2469C499.479 34.9753 497.874 36.0247 495.405 36.0247C491.824 36.0247 489.973 33.7407 490.034 29.8518C490.096 26.0864 491.639 23.8024 495.281 23.8024ZM498.491 28.8024C498.861 25.0987 493.8 24.0493 492.503 27.074C492.318 27.5061 492.133 28.1234 492.133 28.8024H498.491Z" fill="black"/>
<path d="M517.503 27.6913C519.664 28 521.269 29.1111 521.269 31.4568C521.269 36.8271 514.726 35.6543 509.479 35.7778V20.4691C514.17 20.6543 520.405 19.4197 520.405 24.1728C520.405 26.2099 519.232 27.2592 517.503 27.6913ZM511.516 27.0123C514.602 26.9506 518.306 27.5679 518.306 24.4197C518.306 21.5185 514.417 22.1975 511.516 22.1358V27.0123ZM511.516 34.1111C514.911 33.9876 519.17 34.9753 519.17 31.3333C519.17 27.8765 514.849 28.7407 511.516 28.6173V34.1111Z" fill="black"/>
<path d="M455.313 541.204V537.564M455.313 530.284V522.984M455.313 515.714V508.434M455.313 501.154V493.874M455.313 486.574V479.304M455.313 472.024V464.734M455.313 457.464V450.184M455.313 442.884V435.634M455.313 428.354V421.074M455.313 413.794V406.514M455.313 399.234V395.584" stroke="white"/>
<path d="M456.313 542.204H454.313V541.174H456.313V542.204ZM456.313 395.594H454.313V394.564H456.313V395.594Z" fill="white" stroke="white" stroke-width="0.05"/>
<path d="M455.313 345.434V341.304M455.313 333.064V324.814M455.313 316.564V308.324M455.313 300.064V295.934" stroke="#3A414A" stroke-width="2"/>
<path d="M456.313 346.434H454.313V345.404H456.313V346.434ZM456.313 295.974H454.313V294.954H456.313V295.974Z" fill="#3A414A" stroke="#3A414A" stroke-width="0.05"/>
<path d="M455.313 245.054V240.874M455.313 232.534V224.194M455.313 215.844V207.514M455.313 199.174V190.834M455.313 182.474V174.134M455.313 165.794V157.444M455.313 149.114V140.774M455.313 132.424V124.084M455.313 115.744V107.394M455.313 99.0542V90.7242M455.313 82.3742V74.0342M455.313 65.6942V61.5242" stroke="white"/>
<path d="M456.313 246.054H454.313V245.024H456.313V246.054ZM456.313 61.5342H454.313V60.5042H456.313V61.5342Z" fill="white" stroke="white" stroke-width="0.05"/>
<path d="M375.313 252.054C375.313 250.463 375.945 248.937 377.07 247.812C378.196 246.686 379.722 246.054 381.313 246.054H529.313C530.904 246.054 532.43 246.686 533.556 247.812C534.681 248.937 535.313 250.463 535.313 252.054V288.954C535.313 290.545 534.681 292.072 533.556 293.197C532.43 294.322 530.904 294.954 529.313 294.954H381.313C379.722 294.954 378.196 294.322 377.07 293.197C375.945 292.072 375.313 290.545 375.313 288.954V252.054Z" fill="white"/>
<path d="M402.627 266.959C400.158 266.959 399.664 268.996 399.664 271.465C399.664 273.934 400.22 276.094 402.627 276.094C404.108 276.094 405.158 275.23 405.281 273.749L407.257 273.872C406.886 276.156 405.343 277.638 402.689 277.638C399.047 277.638 397.997 275.107 397.627 271.526C397.01 265.786 403.861 263.44 406.701 267.576C406.948 268.008 407.01 268.44 407.133 268.934L405.158 269.119C404.911 267.823 404.17 266.959 402.627 266.959Z" fill="#3A414A"/>
<path d="M413.985 265.415C417.812 265.354 419.232 267.699 419.232 271.526C419.294 275.415 417.565 277.638 413.923 277.638C410.281 277.638 408.8 275.23 408.738 271.526C408.738 267.452 410.466 265.415 413.985 265.415ZM413.923 276.156C416.639 276.218 417.195 274.243 417.195 271.526C417.195 268.872 416.701 266.897 414.047 266.897C411.392 266.897 410.775 268.872 410.775 271.526C410.775 274.181 411.392 276.094 413.923 276.156Z" fill="#3A414A"/>
<path d="M425.405 265.415C427.318 265.415 428.368 266.218 429.108 267.452L429.047 261.28H431.022L431.084 277.391H429.232C429.108 276.773 429.232 275.971 429.047 275.477C428.429 276.897 427.318 277.638 425.405 277.638C422.133 277.638 421.145 275.23 421.084 271.588C421.084 267.514 422.503 265.415 425.405 265.415ZM425.96 266.897C423.491 266.897 423.121 268.996 423.121 271.526C423.121 273.996 423.491 276.094 425.899 276.094C428.491 276.094 429.047 274.119 429.047 271.403C429.047 268.81 428.491 266.835 425.96 266.897Z" fill="#3A414A"/>
<path d="M438.676 265.415C442.565 265.415 443.985 268.008 443.861 271.959H435.528C435.528 274.428 436.392 276.094 438.8 276.156C440.405 276.218 441.454 275.415 441.824 274.366L443.553 274.86C442.874 276.588 441.269 277.638 438.8 277.638C435.22 277.638 433.368 275.354 433.429 271.465C433.491 267.699 435.034 265.415 438.676 265.415ZM441.886 270.415C442.257 266.712 437.195 265.662 435.899 268.687C435.713 269.119 435.528 269.736 435.528 270.415H441.886Z" fill="#3A414A"/>
<path d="M458.121 265.415C461.392 265.415 462.38 267.823 462.442 271.465C462.442 275.539 461.022 277.638 458.121 277.638C456.207 277.576 455.096 276.959 454.479 275.539L454.355 277.391H452.442L452.503 261.28H454.479V267.514C455.096 266.094 456.207 265.415 458.121 265.415ZM457.627 276.156C460.096 276.156 460.405 274.057 460.405 271.526C460.405 269.057 460.096 266.897 457.627 266.959C455.034 266.959 454.479 268.934 454.479 271.65C454.479 274.304 455.096 276.156 457.627 276.156Z" fill="#3A414A"/>
<path d="M469.54 265.415C473.429 265.415 474.849 268.008 474.726 271.959H466.392C466.392 274.428 467.256 276.094 469.664 276.156C471.269 276.218 472.318 275.415 472.689 274.366L474.417 274.86C473.738 276.588 472.133 277.638 469.664 277.638C466.084 277.638 464.232 275.354 464.294 271.465C464.355 267.699 465.898 265.415 469.54 265.415ZM472.75 270.415C473.121 266.712 468.059 265.662 466.763 268.687C466.577 269.119 466.392 269.736 466.392 270.415H472.75Z" fill="#3A414A"/>
<path d="M481.948 262.946C480.034 262.391 479.355 263.564 479.602 265.662H481.948V267.082H479.602V277.391H477.689V267.082H476.022V265.662H477.689C477.256 262.452 478.738 260.601 481.948 261.465V262.946Z" fill="#3A414A"/>
<path d="M488.059 265.415C491.886 265.354 493.306 267.699 493.306 271.526C493.368 275.415 491.639 277.638 487.997 277.638C484.355 277.638 482.874 275.23 482.812 271.526C482.812 267.452 484.54 265.415 488.059 265.415ZM487.997 276.156C490.713 276.218 491.269 274.243 491.269 271.526C491.269 268.872 490.775 266.897 488.121 266.897C485.466 266.897 484.849 268.872 484.849 271.526C484.849 274.181 485.466 276.094 487.997 276.156Z" fill="#3A414A"/>
<path d="M501.269 267.329C496.454 266.341 497.997 272.946 497.75 277.391H495.775L495.713 265.662H497.565C497.627 266.403 497.503 267.452 497.689 268.07C498.059 266.403 499.108 265.045 501.269 265.539V267.329Z" fill="#3A414A"/>
<path d="M507.75 265.415C511.639 265.415 513.059 268.008 512.936 271.959H504.602C504.602 274.428 505.466 276.094 507.874 276.156C509.479 276.218 510.528 275.415 510.898 274.366L512.627 274.86C511.948 276.588 510.343 277.638 507.874 277.638C504.294 277.638 502.442 275.354 502.503 271.465C502.565 267.699 504.108 265.415 507.75 265.415ZM510.96 270.415C511.331 266.712 506.269 265.662 504.973 268.687C504.787 269.119 504.602 269.736 504.602 270.415H510.96Z" fill="#3A414A"/>
<path d="M375.313 352.434C375.313 350.843 375.945 349.317 377.07 348.192C378.196 347.066 379.722 346.434 381.313 346.434H529.313C530.904 346.434 532.43 347.066 533.556 348.192C534.681 349.317 535.313 350.843 535.313 352.434V388.564C535.313 390.156 534.681 391.682 533.556 392.807C532.43 393.932 530.904 394.564 529.313 394.564H381.313C379.722 394.564 378.196 393.932 377.07 392.807C375.945 391.682 375.313 390.156 375.313 388.564V352.434Z" fill="#FE7070"/>
<path d="M401.361 363.514V361.662H403.337V363.514H401.361ZM401.361 377.773V366.045H403.337V377.773H401.361Z" fill="black"/>
<path d="M411.979 365.798C417.473 365.551 415.25 372.958 415.682 377.773H413.707V370.304C413.707 368.39 413.213 367.279 411.3 367.341C406.855 367.465 408.584 373.637 408.275 377.773H406.3L406.238 366.045H408.09C408.152 366.662 408.028 367.526 408.213 368.02C408.892 366.662 410.003 365.86 411.979 365.798Z" fill="black"/>
<path d="M420.744 374.872C420.621 376.353 421.855 376.662 423.09 376.23V377.711C421.053 378.329 418.769 378.02 418.769 375.304V367.465H417.411V366.045H418.892L419.448 363.391H420.744V366.045H422.905V367.465H420.744V374.872Z" fill="black"/>
<path d="M429.448 365.798C433.337 365.798 434.757 368.391 434.633 372.341H426.3C426.3 374.81 427.164 376.477 429.571 376.539C431.176 376.6 432.226 375.798 432.596 374.749L434.324 375.242C433.645 376.971 432.04 378.02 429.571 378.02C425.991 378.02 424.139 375.736 424.201 371.847C424.263 368.082 425.806 365.798 429.448 365.798ZM432.658 370.798C433.028 367.094 427.966 366.045 426.67 369.07C426.485 369.502 426.3 370.119 426.3 370.798H432.658Z" fill="black"/>
<path d="M442.658 367.711C437.843 366.724 439.386 373.329 439.139 377.773H437.164L437.102 366.045H438.954C439.016 366.786 438.892 367.835 439.078 368.452C439.448 366.786 440.497 365.428 442.658 365.921V367.711Z" fill="black"/>
<path d="M450.003 367.711C445.189 366.724 446.732 373.329 446.485 377.773H444.51L444.448 366.045H446.3C446.361 366.786 446.238 367.835 446.423 368.452C446.794 366.786 447.843 365.428 450.003 365.921V367.711Z" fill="black"/>
<path d="M455.497 378.02C450.003 378.267 452.164 370.86 451.732 366.045H453.707V373.452C453.707 375.366 454.139 376.539 456.115 376.477C460.559 376.353 458.892 370.242 459.201 366.045H461.115L461.176 377.773H459.324C459.263 377.156 459.386 376.23 459.201 375.736C458.522 377.094 457.473 377.958 455.497 378.02Z" fill="black"/>
<path d="M469.757 365.798C473.152 365.86 474.078 368.329 474.078 371.847C474.078 375.366 473.09 377.897 469.757 378.02C467.843 378.02 466.732 377.218 466.053 375.921L466.115 382.403H464.139L464.078 366.045H465.991L466.115 367.897C466.732 366.6 467.843 365.798 469.757 365.798ZM469.263 376.539C471.732 376.539 472.04 374.44 472.04 371.909C472.04 369.378 471.67 367.403 469.263 367.341C466.67 367.341 466.115 369.316 466.115 372.032C466.115 374.687 466.732 376.539 469.263 376.539Z" fill="black"/>
<path d="M478.645 374.872C478.522 376.353 479.757 376.662 480.991 376.23V377.711C478.954 378.329 476.67 378.02 476.67 375.304V367.465H475.312V366.045H476.794L477.349 363.391H478.645V366.045H480.806V367.465H478.645V374.872Z" fill="black"/>
<path d="M482.658 363.514V361.662H484.633V363.514H482.658ZM482.658 377.773V366.045H484.633V377.773H482.658Z" fill="black"/>
<path d="M492.226 365.798C496.053 365.736 497.473 368.082 497.473 371.909C497.534 375.798 495.806 378.02 492.164 378.02C488.522 378.02 487.04 375.613 486.979 371.909C486.979 367.835 488.707 365.798 492.226 365.798ZM492.164 376.539C494.88 376.6 495.436 374.625 495.436 371.909C495.436 369.255 494.942 367.279 492.287 367.279C489.633 367.279 489.016 369.255 489.016 371.909C489.016 374.563 489.633 376.477 492.164 376.539Z" fill="black"/>
<path d="M505.621 365.798C511.115 365.551 508.892 372.958 509.324 377.773H507.349V370.304C507.349 368.39 506.855 367.279 504.942 367.341C500.497 367.465 502.226 373.637 501.917 377.773H499.942L499.88 366.045H501.732C501.794 366.662 501.67 367.526 501.855 368.02C502.534 366.662 503.645 365.86 505.621 365.798Z" fill="black"/>
<path d="M316.313 270.504H356.813" stroke="white" stroke-width="2"/>
<path d="M316.343 271.504H315.313V269.504H316.333L316.343 271.504Z" fill="white" stroke="white" stroke-width="0.05"/>
<path d="M372.073 270.504L357.813 275.134V265.864L372.073 270.504Z" fill="white" stroke="white" stroke-width="2"/>
<path d="M235.313 198.534V224.964" stroke="white" stroke-width="2"/>
<path d="M236.313 198.564H234.313V197.534H236.313V198.564Z" fill="white" stroke="white" stroke-width="0.05"/>
<path d="M235.313 240.234L230.673 225.964H239.943L235.313 240.234Z" fill="white" stroke="white" stroke-width="2"/>
<path d="M455.313 295.954V327.934" stroke="white" stroke-width="2"/>
<path d="M456.313 295.974H454.313V294.954H456.313V295.974Z" fill="white" stroke="white" stroke-width="0.05"/>
<path d="M455.313 343.194L450.673 328.934H459.943L455.313 343.194Z" fill="white" stroke="white" stroke-width="2"/>
<path d="M595.313 6.50421C595.313 4.91291 595.945 3.3868 597.07 2.26158C598.196 1.13636 599.722 0.504211 601.313 0.504211H749.313C750.904 0.504211 752.43 1.13636 753.556 2.26158C754.681 3.3868 755.313 4.91291 755.313 6.50421V54.5042C755.313 56.0955 754.681 57.6216 753.556 58.7469C752.43 59.8721 750.904 60.5042 749.313 60.5042H601.313C599.722 60.5042 598.196 59.8721 597.07 58.7469C595.945 57.6216 595.313 56.0955 595.313 54.5042V6.50421Z" fill="#E2E2F0"/>
<path d="M628.182 35.7778L626.454 31.3333H619.479L617.75 35.7778H615.59L621.824 20.4691H624.17L630.281 35.7778H628.182ZM625.837 29.6666L622.935 22.0741C622.195 24.8518 621.022 27.1358 620.096 29.6666H625.837Z" fill="black"/>
<path d="M632.195 20.4691C637.565 20.5309 643.985 19.5432 643.985 25.0988C643.985 29.9136 639.232 30.037 634.232 29.7901V35.7778H632.195V20.4691ZM634.232 28.1852C637.75 28.1852 641.886 28.8642 641.886 25.0988C641.886 21.4568 637.689 22.1975 634.232 22.1358V28.1852Z" fill="black"/>
<path d="M647.195 35.7778V20.4691H649.294V35.7778H647.195Z" fill="black"/>
<path d="M669.664 35.7778V28.679H661.392V35.7778H659.355V20.4691H661.392V26.9506H669.664V20.4691H671.763V35.7778H669.664Z" fill="black"/>
<path d="M682.195 33.5555C681.269 34.8518 680.281 36.0864 677.997 36.0247C675.775 35.9629 674.417 34.7284 674.417 32.5061C674.355 28.5555 678.306 28.6172 682.133 28.6172C682.318 26.4568 681.577 25.2839 679.602 25.2839C678.121 25.3456 677.071 25.716 677.01 27.1975L674.973 27.0123C675.281 24.7284 677.01 23.8024 679.664 23.8024C682.442 23.8024 684.108 25.037 684.108 27.753V32.8148C684.047 34.0493 684.54 34.7901 685.837 34.4814V35.716C683.923 36.2716 682.071 35.5926 682.195 33.5555ZM676.454 32.5061C676.454 33.7407 677.195 34.5432 678.429 34.5432C680.96 34.358 682.318 32.753 682.133 29.9753C679.479 30.0987 676.454 29.6666 676.454 32.5061Z" fill="black"/>
<path d="M693.059 23.8024C698.553 23.5555 696.331 30.9629 696.763 35.7777H694.787V28.3086C694.787 26.395 694.294 25.2839 692.38 25.3456C687.935 25.4691 689.664 31.6419 689.355 35.7777H687.38L687.318 24.0493H689.17C689.232 24.6666 689.108 25.5308 689.294 26.0246C689.973 24.6666 691.084 23.8641 693.059 23.8024Z" fill="black"/>
<path d="M703.429 23.8024C705.343 23.8024 706.392 24.6049 707.133 25.8395L707.071 19.6666H709.047L709.108 35.7777H707.256C707.133 35.1605 707.256 34.358 707.071 33.8642C706.454 35.2839 705.343 36.0247 703.429 36.0247C700.158 36.0247 699.17 33.6172 699.108 29.9753C699.108 25.9012 700.528 23.8024 703.429 23.8024ZM703.985 25.2839C701.516 25.2839 701.145 27.3827 701.145 29.9135C701.145 32.3827 701.516 34.4814 703.923 34.4814C706.516 34.4814 707.071 32.5061 707.071 29.7901C707.071 27.1975 706.516 25.2222 703.985 25.2839Z" fill="black"/>
<path d="M712.01 35.7777V19.6666H713.985V35.7777H712.01Z" fill="black"/>
<path d="M721.577 23.8024C725.466 23.8024 726.886 26.395 726.763 30.3456H718.429C718.429 32.8148 719.294 34.4814 721.701 34.5432C723.306 34.6049 724.355 33.8024 724.726 32.753L726.454 33.2469C725.775 34.9753 724.17 36.0247 721.701 36.0247C718.121 36.0247 716.269 33.7407 716.331 29.8518C716.392 26.0864 717.936 23.8024 721.577 23.8024ZM724.787 28.8024C725.158 25.0987 720.096 24.0493 718.8 27.074C718.615 27.5061 718.429 28.1234 718.429 28.8024H724.787Z" fill="black"/>
<path d="M734.787 25.716C729.973 24.7284 731.516 31.3333 731.269 35.7777H729.294L729.232 24.0493H731.084C731.145 24.7901 731.022 25.8395 731.207 26.4568C731.577 24.7901 732.627 23.4321 734.787 23.9259V25.716Z" fill="black"/>
<path d="M675.313 342.464V338.564M675.313 330.764V322.964M675.313 315.164V307.344M675.313 299.544V291.744M675.313 283.944V276.144M675.313 268.344V260.524M675.313 252.724V244.924M675.313 237.124V229.324M675.313 221.504V213.704M675.313 205.904V198.104M675.313 190.284V182.484M675.313 174.684V166.884M675.313 159.064V151.264M675.313 143.464V135.634M675.313 127.834V120.014M675.313 112.214V104.414M675.313 96.6142V88.7942M675.313 80.9942V73.1942M675.313 65.3942V61.4942" stroke="white"/>
<path d="M676.313 343.464H674.313V342.444H676.313V343.464ZM676.313 61.5342H674.313V60.5042H676.313V61.5342Z" fill="white" stroke="white" stroke-width="0.05"/>
<path d="M595.313 349.464C595.313 347.873 595.945 346.347 597.07 345.222C598.196 344.096 599.722 343.464 601.313 343.464H749.313C750.904 343.464 752.43 344.096 753.556 345.222C754.681 346.347 755.313 347.873 755.313 349.464V385.604C755.313 387.195 754.681 388.722 753.556 389.847C752.43 390.972 750.904 391.604 749.313 391.604H601.313C599.722 391.604 598.196 390.972 597.07 389.847C595.945 388.722 595.313 387.195 595.313 385.604V349.464Z" fill="#DFE3E8"/>
<path d="M637.102 364.375C632.966 364.56 634.756 370.856 634.386 374.807H632.473V367.338C632.473 365.547 632.164 364.251 630.312 364.375C626.238 364.622 627.966 370.794 627.596 374.807H625.682L625.621 363.078H627.473C627.534 363.696 627.411 364.56 627.596 365.054C628.213 362.338 633.707 361.967 634.201 365.054C634.88 363.757 635.868 362.893 637.781 362.831C643.028 362.708 640.682 370.177 641.176 374.807H639.263V367.338C639.263 365.547 638.954 364.313 637.102 364.375Z" fill="#979EA8"/>
<path d="M651.3 372.585C650.374 373.881 649.386 375.115 647.102 375.054C644.88 374.992 643.522 373.757 643.522 371.535C643.46 367.585 647.411 367.646 651.238 367.646C651.423 365.486 650.682 364.313 648.707 364.313C647.226 364.375 646.176 364.745 646.115 366.226L644.077 366.041C644.386 363.757 646.115 362.831 648.769 362.831C651.547 362.831 653.213 364.066 653.213 366.782V371.844C653.152 373.078 653.645 373.819 654.942 373.51V374.745C653.028 375.301 651.176 374.622 651.3 372.585ZM645.559 371.535C645.559 372.77 646.3 373.572 647.534 373.572C650.065 373.387 651.423 371.782 651.238 369.004C648.584 369.128 645.559 368.696 645.559 371.535Z" fill="#979EA8"/>
<path d="M656.423 360.547V358.696H658.398V360.547H656.423ZM656.423 374.807V363.078H658.398V374.807H656.423Z" fill="#979EA8"/>
<path d="M667.04 362.831C672.534 362.584 670.312 369.992 670.744 374.807H668.769V367.338C668.769 365.424 668.275 364.313 666.361 364.375C661.917 364.498 663.645 370.671 663.337 374.807H661.361L661.3 363.078H663.152C663.213 363.696 663.09 364.56 663.275 365.054C663.954 363.696 665.065 362.893 667.04 362.831Z" fill="#979EA8"/>
<path d="M684.263 364.375C681.794 364.375 681.3 366.412 681.3 368.881C681.3 371.35 681.855 373.51 684.263 373.51C685.744 373.51 686.794 372.646 686.917 371.165L688.892 371.288C688.522 373.572 686.979 375.054 684.324 375.054C680.682 375.054 679.633 372.523 679.263 368.943C678.645 363.202 685.497 360.856 688.337 364.992C688.584 365.424 688.645 365.856 688.769 366.35L686.794 366.535C686.547 365.239 685.806 364.375 684.263 364.375Z" fill="#979EA8"/>
<path d="M695.621 362.831C699.448 362.77 700.868 365.115 700.868 368.943C700.929 372.831 699.201 375.054 695.559 375.054C691.917 375.054 690.436 372.646 690.374 368.943C690.374 364.868 692.102 362.831 695.621 362.831ZM695.559 373.572C698.275 373.634 698.831 371.659 698.831 368.943C698.831 366.288 698.337 364.313 695.682 364.313C693.028 364.313 692.411 366.288 692.411 368.943C692.411 371.597 693.028 373.51 695.559 373.572Z" fill="#979EA8"/>
<path d="M707.041 362.831C708.954 362.831 710.003 363.634 710.744 364.868L710.682 358.696H712.658L712.72 374.807H710.868C710.744 374.189 710.868 373.387 710.682 372.893C710.065 374.313 708.954 375.054 707.041 375.054C703.769 375.054 702.781 372.646 702.72 369.004C702.72 364.93 704.139 362.831 707.041 362.831ZM707.596 364.313C705.127 364.313 704.757 366.412 704.757 368.943C704.757 371.412 705.127 373.51 707.534 373.51C710.127 373.51 710.682 371.535 710.682 368.819C710.682 366.226 710.127 364.251 707.596 364.313Z" fill="#979EA8"/>
<path d="M720.312 362.831C724.201 362.831 725.621 365.424 725.497 369.375H717.164C717.164 371.844 718.028 373.51 720.436 373.572C722.04 373.634 723.09 372.831 723.46 371.782L725.189 372.276C724.51 374.004 722.905 375.054 720.436 375.054C716.855 375.054 715.003 372.77 715.065 368.881C715.127 365.115 716.67 362.831 720.312 362.831ZM723.522 367.831C723.892 364.128 718.831 363.078 717.534 366.103C717.349 366.535 717.164 367.152 717.164 367.831H723.522Z" fill="#979EA8"/>
<path d="M675.313 392.604V396.974M675.313 405.714V414.454M675.313 423.194V431.934M675.313 440.674V449.414M675.313 458.154V466.894M675.313 475.634V480.004" stroke="white" stroke-width="2"/>
<path d="M676.313 392.634H674.313V391.604H676.313V392.634Z" fill="white" stroke="white" stroke-width="0.05"/>
<path d="M675.313 479.974V481.004" stroke="white" stroke-width="2"/>
<path d="M375.313 548.704C375.313 547.113 375.945 545.587 377.07 544.462C378.196 543.336 379.722 542.704 381.313 542.704H529.313C530.904 542.704 532.43 543.336 533.556 544.462C534.681 545.587 535.313 547.113 535.313 548.704V582.634C535.313 584.226 534.681 585.752 533.556 586.877C532.43 588.002 530.904 588.634 529.313 588.634H381.313C379.722 588.634 378.196 588.002 377.07 586.877C375.945 585.752 375.313 584.226 375.313 582.634V548.704Z" fill="#DFE3E8" stroke="#CED4DB"/>
<path d="M406.732 570.257C405.806 571.553 404.818 572.788 402.534 572.726C400.312 572.664 398.954 571.43 398.954 569.207C398.892 565.257 402.843 565.319 406.67 565.319C406.855 563.158 406.115 561.985 404.139 561.985C402.658 562.047 401.608 562.417 401.547 563.899L399.51 563.714C399.818 561.43 401.547 560.504 404.201 560.504C406.979 560.504 408.645 561.738 408.645 564.454V569.516C408.584 570.751 409.078 571.491 410.374 571.183V572.417C408.46 572.973 406.608 572.294 406.732 570.257ZM400.991 569.207C400.991 570.442 401.732 571.245 402.966 571.245C405.497 571.059 406.855 569.454 406.67 566.677C404.016 566.8 400.991 566.368 400.991 569.207Z" fill="#979EA8"/>
<path d="M423.09 572.479H420.868L418.398 562.356L415.868 572.479H413.645L410.312 560.751H412.287L414.695 570.874L417.349 560.751H419.448L421.979 570.874L424.571 560.751H426.485" fill="#979EA8"/>
<path d="M435.065 570.257C434.139 571.553 433.152 572.788 430.868 572.726C428.645 572.664 427.287 571.43 427.287 569.207C427.226 565.257 431.176 565.319 435.003 565.319C435.189 563.158 434.448 561.985 432.473 561.985C430.991 562.047 429.942 562.417 429.88 563.899L427.843 563.714C428.152 561.43 429.88 560.504 432.534 560.504C435.312 560.504 436.979 561.738 436.979 564.454V569.516C436.917 570.751 437.411 571.491 438.707 571.183V572.417C436.794 572.973 434.942 572.294 435.065 570.257ZM429.324 569.207C429.324 570.442 430.065 571.245 431.3 571.245C433.831 571.059 435.189 569.454 435.003 566.677C432.349 566.8 429.324 566.368 429.324 569.207Z" fill="#979EA8"/>
<path d="M440.189 558.22V556.368H442.164V558.22H440.189ZM440.189 572.479V560.751H442.164V572.479H440.189Z" fill="#979EA8"/>
<path d="M447.226 569.578C447.102 571.059 448.337 571.368 449.571 570.936V572.417C447.534 573.035 445.25 572.726 445.25 570.01V562.171H443.892V560.751H445.374L445.929 558.096H447.226V560.751H449.386V562.171H447.226V569.578Z" fill="#979EA8"/>
<path d="M463.152 560.504C468.645 560.257 466.423 567.664 466.855 572.479H464.88V565.01C464.88 563.096 464.386 561.985 462.473 562.047C458.028 562.17 459.757 568.343 459.448 572.479H457.473L457.411 560.751H459.263C459.324 561.368 459.201 562.232 459.386 562.726C460.065 561.368 461.176 560.566 463.152 560.504Z" fill="#979EA8"/>
<path d="M474.448 560.504C478.337 560.504 479.757 563.096 479.633 567.047H471.3C471.3 569.516 472.164 571.183 474.571 571.245C476.176 571.306 477.226 570.504 477.596 569.454L479.324 569.948C478.645 571.677 477.04 572.726 474.571 572.726C470.991 572.726 469.139 570.442 469.201 566.553C469.263 562.788 470.806 560.504 474.448 560.504ZM477.658 565.504C478.028 561.8 472.966 560.751 471.67 563.775C471.485 564.207 471.3 564.825 471.3 565.504H477.658Z" fill="#979EA8"/>
<path d="M489.324 572.479L486.176 567.664L482.966 572.479H480.868L485.065 566.43L481.053 560.751H483.213L486.176 565.319L489.078 560.751H491.238L487.287 566.43L491.485 572.479H489.324Z" fill="#979EA8"/>
<path d="M495.374 569.578C495.25 571.059 496.485 571.368 497.72 570.936V572.417C495.682 573.035 493.399 572.726 493.399 570.01V562.171H492.04V560.751H493.522L494.078 558.096H495.374V560.751H497.534V562.171H495.374V569.578Z" fill="#979EA8"/>
<path d="M503.275 577.109C500.929 574.516 499.263 571.43 499.263 566.677C499.263 561.985 500.991 558.899 503.275 556.368H505.189C502.843 558.899 501.238 562.047 501.238 566.738C501.238 571.43 502.843 574.578 505.189 577.109H503.275Z" fill="#979EA8"/>
<path d="M507.287 556.368C509.633 558.899 511.3 562.047 511.3 566.738C511.3 571.43 509.633 574.578 507.287 577.109H505.374C507.658 574.578 509.324 571.43 509.324 566.738C509.324 562.047 507.658 558.899 505.374 556.368H507.287Z" fill="#979EA8"/>
<path d="M155.313 447.604C155.313 446.013 155.945 444.487 157.07 443.362C158.196 442.236 159.722 441.604 161.313 441.604H309.313C310.904 441.604 312.43 442.236 313.556 443.362C314.681 444.487 315.313 446.013 315.313 447.604V489.664C315.313 491.256 314.681 492.782 313.556 493.907C312.43 495.032 310.904 495.664 309.313 495.664H161.313C159.722 495.664 158.196 495.032 157.07 493.907C155.945 492.782 155.313 491.256 155.313 489.664V447.604Z" fill="white"/>
<path d="M191.886 462.884C189.417 462.884 188.923 464.921 188.923 467.39C188.923 469.859 189.479 472.02 191.886 472.02C193.368 472.02 194.417 471.155 194.54 469.674L196.516 469.797C196.145 472.081 194.602 473.563 191.948 473.563C188.306 473.563 187.256 471.032 186.886 467.452C186.269 461.711 193.121 459.365 195.96 463.501C196.207 463.933 196.269 464.365 196.392 464.859L194.417 465.044C194.17 463.748 193.429 462.884 191.886 462.884Z" fill="#3A414A"/>
<path d="M203.244 461.341C207.071 461.279 208.491 463.625 208.491 467.452C208.553 471.341 206.824 473.563 203.182 473.563C199.54 473.563 198.059 471.155 197.997 467.452C197.997 463.378 199.726 461.341 203.244 461.341ZM203.182 472.081C205.898 472.143 206.454 470.168 206.454 467.452C206.454 464.797 205.96 462.822 203.306 462.822C200.652 462.822 200.034 464.797 200.034 467.452C200.034 470.106 200.652 472.02 203.182 472.081Z" fill="#3A414A"/>
<path d="M214.664 461.341C216.577 461.341 217.627 462.143 218.368 463.378L218.306 457.205H220.281L220.343 473.316H218.491C218.368 472.699 218.491 471.896 218.306 471.402C217.689 472.822 216.577 473.563 214.664 473.563C211.392 473.563 210.405 471.155 210.343 467.513C210.343 463.439 211.763 461.341 214.664 461.341ZM215.219 462.822C212.75 462.822 212.38 464.921 212.38 467.452C212.38 469.921 212.75 472.02 215.158 472.02C217.75 472.02 218.306 470.044 218.306 467.328C218.306 464.736 217.75 462.76 215.219 462.822Z" fill="#3A414A"/>
<path d="M227.936 461.341C231.824 461.341 233.244 463.933 233.121 467.884H224.787C224.787 470.353 225.652 472.02 228.059 472.081C229.664 472.143 230.713 471.341 231.084 470.291L232.812 470.785C232.133 472.513 230.528 473.563 228.059 473.563C224.479 473.563 222.627 471.279 222.689 467.39C222.75 463.625 224.294 461.341 227.936 461.341ZM231.145 466.341C231.516 462.637 226.454 461.587 225.158 464.612C224.973 465.044 224.787 465.662 224.787 466.341H231.145Z" fill="#3A414A"/>
<path d="M248.985 471.094C248.059 472.39 247.071 473.625 244.787 473.563C242.565 473.501 241.207 472.267 241.207 470.044C241.145 466.094 245.096 466.156 248.923 466.156C249.108 463.995 248.368 462.822 246.392 462.822C244.911 462.884 243.861 463.254 243.8 464.736L241.763 464.551C242.071 462.267 243.8 461.341 246.454 461.341C249.232 461.341 250.899 462.575 250.899 465.291V470.353C250.837 471.588 251.331 472.328 252.627 472.02V473.254C250.713 473.81 248.861 473.131 248.985 471.094ZM243.244 470.044C243.244 471.279 243.985 472.081 245.22 472.081C247.75 471.896 249.108 470.291 248.923 467.514C246.269 467.637 243.244 467.205 243.244 470.044Z" fill="#3A414A"/>
<path d="M258.861 458.872C256.948 458.316 256.269 459.489 256.516 461.588H258.861V463.007H256.516V473.316H254.602V463.007H252.936V461.588H254.602C254.17 458.378 255.652 456.526 258.861 457.39V458.872Z" fill="#3A414A"/>
<path d="M262.442 470.415C262.318 471.896 263.553 472.205 264.787 471.773V473.254C262.75 473.871 260.466 473.563 260.466 470.847V463.007H259.108V461.588H260.59L261.145 458.933H262.442V461.588H264.602V463.007H262.442V470.415Z" fill="#3A414A"/>
<path d="M271.145 461.341C275.034 461.341 276.454 463.933 276.331 467.884H267.997C267.997 470.353 268.861 472.02 271.269 472.081C272.874 472.143 273.923 471.341 274.294 470.291L276.022 470.785C275.343 472.514 273.738 473.563 271.269 473.563C267.689 473.563 265.837 471.279 265.899 467.39C265.96 463.625 267.503 461.341 271.145 461.341ZM274.355 466.341C274.726 462.637 269.664 461.588 268.368 464.612C268.182 465.044 267.997 465.662 267.997 466.341H274.355Z" fill="#3A414A"/>
<path d="M284.355 463.254C279.54 462.267 281.084 468.872 280.837 473.316H278.861L278.8 461.588H280.652C280.713 462.328 280.59 463.378 280.775 463.995C281.145 462.328 282.195 460.97 284.355 461.464V463.254Z" fill="#3A414A"/>
<path d="M435.313 454.634C435.313 453.043 435.945 451.517 437.07 450.392C438.196 449.266 439.722 448.634 441.313 448.634H469.313C470.904 448.634 472.43 449.266 473.556 450.392C474.681 451.517 475.313 453.043 475.313 454.634V482.634C475.313 484.226 474.681 485.752 473.556 486.877C472.43 488.002 470.904 488.634 469.313 488.634H441.313C439.722 488.634 438.196 488.002 437.07 486.877C435.945 485.752 435.313 484.226 435.313 482.634V454.634Z" fill="white"/>
<path d="M434.813 468.634H331.693" stroke="white"/>
<path d="M435.313 469.134H434.813V468.134H435.313V469.134Z" fill="white" stroke="white" stroke-width="0.05"/>
<path d="M316.933 468.634L331.193 464.004V473.264L316.933 468.634Z" fill="white" stroke="white"/>
<path d="M675.313 627.634V623.594M675.313 615.494V607.394M675.313 599.314V591.214M675.313 583.134V575.034M675.313 566.954V558.854M675.313 550.774V542.674M675.313 534.594V526.494M675.313 518.394V510.314M675.313 502.214V494.134M675.313 486.034V482.004M675.313 627.604V628.634M675.313 482.034V481.004M1.47299 170.504H136.813M1.50299 170.504H0.472992" stroke="white"/>
<path d="M152.073 170.504L137.813 175.134V165.864L152.073 170.504Z" fill="white" stroke="white" stroke-width="2"/>
<path d="M13.8148 146.87C13.8148 149.339 12.3951 150.636 10.4815 151.191L14.6173 157.611H10.9753L7.45678 151.809H3.69135V157.611H0.481476V142.302C6.22222 142.549 13.8765 140.883 13.8148 146.87ZM3.69135 149.339C6.65432 149.216 10.6049 150.08 10.6049 146.994C10.6049 144.031 6.53086 145.018 3.69135 144.833V149.339Z" fill="white"/>
<path d="M26.4074 154.648C25.6049 156.5 24.1234 157.92 21.3457 157.858C17.642 157.735 15.8518 155.574 15.8518 151.685C15.8518 147.796 17.7037 145.636 21.4074 145.636C25.2346 145.636 26.5308 148.414 26.5926 152.302H19.0617C19.0617 154.216 19.5555 155.697 21.4691 155.759C22.5802 155.759 23.321 155.327 23.5679 154.401L26.4074 154.648ZM23.6296 150.389C23.9383 147.549 20.1111 146.5 19.3086 149.093C19.1852 149.463 19.0617 149.895 19.0617 150.389H23.6296Z" fill="white"/>
<path d="M32.5185 157.858C29.3086 157.858 28.2592 155.08 28.2592 151.747C28.2592 148.352 29.3704 145.636 32.7654 145.636C34.5555 145.636 35.6667 146.376 36.3457 147.735L36.4691 145.883H39.4321L39.3704 162.241H36.3457V155.636C35.7284 157.055 34.3704 157.858 32.5185 157.858ZM33.8148 155.759C35.7901 155.759 36.3457 153.969 36.3457 151.685C36.3457 149.463 35.7901 147.735 33.8765 147.735C31.8395 147.735 31.4691 149.586 31.4074 151.747C31.4074 154.401 32.2099 155.759 33.8148 155.759Z" fill="white"/>
<path d="M46.0988 157.858C40.7284 157.92 42.5185 150.883 42.2099 145.883H45.2963C45.7284 149.401 43.8765 155.142 47.3333 155.574C51.037 155.265 49.4938 149.586 49.8025 145.883H52.8889L52.9506 157.611H50.0494C49.9259 156.87 50.1111 155.883 49.8642 155.265C49.1235 156.809 48.1358 157.858 46.0988 157.858Z" fill="white"/>
<path d="M65.7901 154.648C64.9876 156.5 63.5062 157.92 60.7284 157.858C57.0247 157.735 55.2346 155.574 55.2346 151.685C55.2346 147.796 57.0864 145.636 60.7901 145.636C64.6173 145.636 65.9136 148.414 65.9753 152.302H58.4444C58.4444 154.216 58.9383 155.697 60.8518 155.759C61.963 155.759 62.7037 155.327 62.9506 154.401L65.7901 154.648ZM63.0123 150.389C63.321 147.549 59.4938 146.5 58.6913 149.093C58.5679 149.463 58.4444 149.895 58.4444 150.389H63.0123Z" fill="white"/>
<path d="M75.1728 149.093C75.2345 147.302 70.8518 146.994 70.7901 148.846C71.716 151.685 78.074 149.278 78.1358 154.154C78.1975 159.278 68.0123 158.846 67.5185 154.71L70.1728 154.278C70.4197 155.451 71.4074 155.821 72.8889 155.821C74.9259 156.315 76.4074 153.969 74.3703 153.29C71.716 152.426 68.074 152.611 67.9506 149.216C67.8271 144.278 77.4568 144.648 77.8889 148.784" fill="white"/>
<path d="M86.1605 157.426C83.9383 158.29 80.7901 157.858 80.7901 154.833V147.92H79.3086V145.883H80.9753L81.9012 143.105H83.8148V145.883H86.037V147.92H83.8148V154.031C83.7531 155.451 84.8025 155.944 86.1605 155.574V157.426Z" fill="white"/>
<path d="M235.313 627.634V623.534M235.313 615.354V607.174M235.313 598.974V590.804M235.313 582.604V574.424M235.313 566.224V558.044M235.313 549.864V541.664M235.313 533.494V525.294M235.313 517.124V508.924M235.313 500.754V496.654M235.313 627.604V628.634" stroke="white"/>
<path d="M236.313 496.694H234.313V495.664H236.313V496.694Z" fill="white" stroke="white" stroke-width="0.05"/>
<path d="M455.313 395.564V428.394" stroke="white" stroke-width="2"/>
<path d="M456.313 395.594H454.313V394.564H456.313V395.594Z" fill="white" stroke="white" stroke-width="0.05"/>
<path d="M455.313 443.654L450.673 429.394H459.943L455.313 443.654Z" fill="white" stroke="white" stroke-width="2"/>
<path d="M455.313 590.134V594.834M455.313 604.194V613.574M455.313 622.944V627.644" stroke="white"/>
<path d="M456.313 590.164H454.313V589.134H456.313V590.164Z" fill="white" stroke="white" stroke-width="0.05"/>
<path d="M455.313 627.604V628.634" stroke="white" stroke-width="2"/>
</svg>
