<svg width="760" height="614" viewBox="0 0 760 614" fill="none" xmlns="http://www.w3.org/2000/svg">
<path d="M160 6.5C160 4.9087 160.632 3.38258 161.757 2.25736C162.883 1.13214 164.409 0.5 166 0.5H314C315.591 0.5 317.117 1.13214 318.243 2.25736C319.368 3.38258 320 4.9087 320 6.5V54.5C320 56.0913 319.368 57.6174 318.243 58.7426C317.117 59.8679 315.591 60.5 314 60.5H166C164.409 60.5 162.883 59.8679 161.757 58.7426C160.632 57.6174 160 56.0913 160 54.5V6.5Z" fill="#E2E2F0"/>
<path d="M187.685 35.7778L187.809 22.321C186.389 27.0124 184.475 31.2716 182.87 35.7778H181.451L176.451 22.321L176.512 35.7778H174.722V20.4692H177.438L182.191 33.4939C183.488 28.8642 185.339 24.8519 186.883 20.4692H189.537V35.7778H187.685Z" fill="black"/>
<path d="M192.809 21.5185V19.6667H194.784V21.5185H192.809ZM192.809 35.7778V24.0494H194.784V35.7778H192.809Z" fill="black"/>
<path d="M201.451 23.8025C203.364 23.8025 204.413 24.605 205.154 25.8395L205.092 19.6667H207.068L207.13 35.7778H205.278C205.154 35.1605 205.278 34.358 205.092 33.8642C204.475 35.284 203.364 36.0247 201.451 36.0247C198.179 36.0247 197.191 33.6173 197.13 29.9753C197.13 25.9013 198.549 23.8025 201.451 23.8025ZM202.006 25.284C199.537 25.284 199.167 27.3827 199.167 29.9136C199.167 32.3827 199.537 34.4815 201.944 34.4815C204.537 34.4815 205.092 32.5062 205.092 29.7901C205.092 27.1976 204.537 25.2222 202.006 25.284Z" fill="black"/>
<path d="M213.796 23.8025C215.71 23.8025 216.759 24.605 217.5 25.8395L217.438 19.6667H219.413L219.475 35.7778H217.623C217.5 35.1605 217.623 34.358 217.438 33.8642C216.821 35.284 215.71 36.0247 213.796 36.0247C210.525 36.0247 209.537 33.6173 209.475 29.9753C209.475 25.9013 210.895 23.8025 213.796 23.8025ZM214.352 25.284C211.883 25.284 211.512 27.3827 211.512 29.9136C211.512 32.3827 211.883 34.4815 214.29 34.4815C216.883 34.4815 217.438 32.5062 217.438 29.7901C217.438 27.1976 216.883 25.2222 214.352 25.284Z" fill="black"/>
<path d="M222.376 35.7778V19.6667H224.352V35.7778H222.376Z" fill="black"/>
<path d="M231.944 23.8025C235.833 23.8025 237.253 26.3951 237.13 30.3457H228.796C228.796 32.8148 229.66 34.4815 232.068 34.5432C233.673 34.605 234.722 33.8025 235.092 32.7531L236.821 33.2469C236.142 34.9753 234.537 36.0247 232.068 36.0247C228.488 36.0247 226.636 33.7408 226.697 29.8519C226.759 26.0864 228.302 23.8025 231.944 23.8025ZM235.154 28.8025C235.525 25.0988 230.463 24.0494 229.167 27.0741C228.981 27.5062 228.796 28.1235 228.796 28.8025H235.154Z" fill="black"/>
<path d="M250.833 35.7778H248.611L246.142 25.6543L243.611 35.7778H241.389L238.056 24.0494H240.031L242.438 34.1728L245.093 24.0494H247.191L249.722 34.1728L252.315 24.0494H254.228" fill="black"/>
<path d="M262.809 33.5556C261.883 34.8519 260.895 36.0864 258.611 36.0247C256.389 35.963 255.031 34.7284 255.031 32.5062C254.969 28.5556 258.92 28.6173 262.747 28.6173C262.932 26.4568 262.191 25.284 260.216 25.284C258.735 25.3457 257.685 25.7161 257.623 27.1976L255.586 27.0124C255.895 24.7284 257.623 23.8025 260.278 23.8025C263.056 23.8025 264.722 25.0371 264.722 27.7531V32.8148C264.66 34.0494 265.154 34.7901 266.451 34.4815V35.7161C264.537 36.2716 262.685 35.5926 262.809 33.5556ZM257.068 32.5062C257.068 33.7408 257.809 34.5432 259.043 34.5432C261.574 34.358 262.932 32.7531 262.747 29.9753C260.093 30.0988 257.068 29.6667 257.068 32.5062Z" fill="black"/>
<path d="M273.488 25.7161C268.673 24.7284 270.216 31.3334 269.969 35.7778H267.994L267.932 24.0494H269.784C269.846 24.7901 269.722 25.8395 269.907 26.4568C270.278 24.7901 271.327 23.4321 273.488 23.9259V25.7161Z" fill="black"/>
<path d="M279.969 23.8025C283.858 23.8025 285.278 26.3951 285.154 30.3457H276.821C276.821 32.8148 277.685 34.4815 280.093 34.5432C281.698 34.605 282.747 33.8025 283.117 32.7531L284.846 33.2469C284.167 34.9753 282.562 36.0247 280.093 36.0247C276.512 36.0247 274.66 33.7408 274.722 29.8519C274.784 26.0864 276.327 23.8025 279.969 23.8025ZM283.179 28.8025C283.549 25.0988 278.488 24.0494 277.191 27.0741C277.006 27.5062 276.821 28.1235 276.821 28.8025H283.179Z" fill="black"/>
<path d="M304.969 35.7778L303.241 31.3333H296.265L294.537 35.7778H292.377L298.611 20.4691H300.957L307.068 35.7778H304.969ZM302.623 29.6666L299.722 22.0741C298.982 24.8518 297.809 27.1358 296.883 29.6666H302.623Z" fill="black"/>
<path d="M240 517V512.94M240 504.81V496.71M240 488.57V480.45M240 472.32V464.22M240 456.08V447.96M240 439.83V431.73M240 423.59V415.47M240 407.34V399.24M240 391.1V382.98M240 374.85V366.75M240 358.61V350.49M240 342.36V334.26M240 326.12V318M240 309.87V301.77M240 293.63V289.5" stroke="#CCCCCC"/>
<path d="M241 518H239V516.97H241V518ZM241 289.53H239V288.5H241V289.53Z" fill="#3A414A" stroke="#3A414A" stroke-width="0.05"/>
<path d="M240 237.5V233.54M240 225.64V217.71M240 209.81V201.89M240 193.97V190" stroke="#3A414A" stroke-width="2"/>
<path d="M241 238.5H239V237.47H241V238.5ZM241 190.03H239V189H241V190.03Z" fill="#3A414A" stroke="#3A414A" stroke-width="0.05"/>
<path d="M240 137V133.23M240 125.68V118.13M240 110.58V103.02M240 95.47V87.92M240 80.37V72.81M240 65.26V61.5" stroke="#CCCCCC"/>
<path d="M241 138H239V136.97H241V138ZM241 61.53H239V60.5H241V61.53Z" fill="#3A414A" stroke="#3A414A" stroke-width="0.05"/>
<path d="M160 144.5C160 142.909 160.632 141.383 161.757 140.257C162.883 139.132 164.409 138.5 166 138.5H314C315.591 138.5 317.117 139.132 318.243 140.257C319.368 141.383 320 142.909 320 144.5V182.5C320 184.091 319.368 185.617 318.243 186.743C317.117 187.868 315.591 188.5 314 188.5H166C164.409 188.5 162.883 187.868 161.757 186.743C160.632 185.617 160 184.091 160 182.5V144.5Z" fill="white"/>
<path d="M187.315 159.471C184.846 159.471 184.352 161.508 184.352 163.977C184.352 166.446 184.907 168.607 187.315 168.607C188.796 168.607 189.846 167.742 189.969 166.261L191.944 166.384C191.574 168.668 190.031 170.15 187.376 170.15C183.735 170.15 182.685 167.619 182.315 164.039C181.697 158.298 188.549 155.952 191.389 160.088C191.636 160.52 191.697 160.952 191.821 161.446L189.846 161.631C189.599 160.335 188.858 159.471 187.315 159.471Z" fill="#3A414A"/>
<path d="M198.673 157.927C202.5 157.866 203.92 160.211 203.92 164.039C203.981 167.927 202.253 170.15 198.611 170.15C194.969 170.15 193.488 167.742 193.426 164.039C193.426 159.964 195.154 157.927 198.673 157.927ZM198.611 168.668C201.327 168.73 201.883 166.755 201.883 164.039C201.883 161.384 201.389 159.409 198.735 159.409C196.08 159.409 195.463 161.384 195.463 164.039C195.463 166.693 196.08 168.606 198.611 168.668Z" fill="#3A414A"/>
<path d="M210.092 157.927C212.006 157.927 213.055 158.73 213.796 159.965L213.734 153.792H215.71L215.771 169.903H213.92C213.796 169.286 213.92 168.483 213.734 167.989C213.117 169.409 212.006 170.15 210.092 170.15C206.821 170.15 205.833 167.742 205.771 164.1C205.771 160.026 207.191 157.927 210.092 157.927ZM210.648 159.409C208.179 159.409 207.809 161.508 207.809 164.039C207.809 166.508 208.179 168.607 210.586 168.607C213.179 168.607 213.734 166.631 213.734 163.915C213.734 161.323 213.179 159.347 210.648 159.409Z" fill="#3A414A"/>
<path d="M223.364 157.927C227.253 157.927 228.673 160.52 228.549 164.471H220.216C220.216 166.94 221.08 168.607 223.488 168.668C225.093 168.73 226.142 167.927 226.512 166.878L228.241 167.372C227.562 169.1 225.957 170.15 223.488 170.15C219.907 170.15 218.055 167.866 218.117 163.977C218.179 160.211 219.722 157.927 223.364 157.927ZM226.574 162.927C226.944 159.224 221.883 158.174 220.586 161.199C220.401 161.631 220.216 162.248 220.216 162.927H226.574Z" fill="#3A414A"/>
<path d="M242.809 157.927C246.08 157.927 247.068 160.335 247.13 163.977C247.13 168.051 245.71 170.15 242.809 170.15C240.895 170.088 239.784 169.471 239.167 168.051L239.043 169.903H237.13L237.191 153.792H239.167V160.026C239.784 158.606 240.895 157.927 242.809 157.927ZM242.315 168.668C244.784 168.668 245.093 166.569 245.093 164.039C245.093 161.569 244.784 159.409 242.315 159.471C239.722 159.471 239.167 161.446 239.167 164.162C239.167 166.816 239.784 168.668 242.315 168.668Z" fill="#3A414A"/>
<path d="M254.228 157.927C258.117 157.927 259.537 160.52 259.414 164.471H251.08C251.08 166.94 251.944 168.606 254.352 168.668C255.957 168.73 257.006 167.927 257.377 166.878L259.105 167.372C258.426 169.1 256.821 170.15 254.352 170.15C250.772 170.15 248.92 167.866 248.981 163.977C249.043 160.211 250.586 157.927 254.228 157.927ZM257.438 162.927C257.809 159.224 252.747 158.174 251.451 161.199C251.265 161.631 251.08 162.248 251.08 162.927H257.438Z" fill="#3A414A"/>
<path d="M266.636 155.458C264.722 154.903 264.043 156.076 264.29 158.174H266.636V159.594H264.29V169.903H262.377V159.594H260.71V158.174H262.377C261.944 154.964 263.426 153.113 266.636 153.977V155.458Z" fill="#3A414A"/>
<path d="M272.747 157.927C276.574 157.866 277.994 160.211 277.994 164.039C278.056 167.927 276.327 170.15 272.685 170.15C269.043 170.15 267.562 167.742 267.5 164.039C267.5 159.964 269.228 157.927 272.747 157.927ZM272.685 168.668C275.401 168.73 275.957 166.755 275.957 164.039C275.957 161.384 275.463 159.409 272.809 159.409C270.154 159.409 269.537 161.384 269.537 164.039C269.537 166.693 270.154 168.606 272.685 168.668Z" fill="#3A414A"/>
<path d="M285.957 159.841C281.142 158.853 282.685 165.458 282.438 169.903H280.463L280.401 158.174H282.253C282.315 158.915 282.191 159.964 282.377 160.582C282.747 158.915 283.796 157.557 285.957 158.051V159.841Z" fill="#3A414A"/>
<path d="M292.438 157.927C296.327 157.927 297.747 160.52 297.623 164.471H289.29C289.29 166.94 290.154 168.606 292.562 168.668C294.167 168.73 295.216 167.927 295.586 166.878L297.315 167.372C296.636 169.1 295.031 170.15 292.562 170.15C288.981 170.15 287.13 167.866 287.191 163.977C287.253 160.211 288.796 157.927 292.438 157.927ZM295.648 162.927C296.018 159.224 290.957 158.174 289.66 161.199C289.475 161.631 289.29 162.248 289.29 162.927H295.648Z" fill="#3A414A"/>
<path d="M160 244.5C160 242.909 160.632 241.383 161.757 240.257C162.883 239.132 164.409 238.5 166 238.5H314C315.591 238.5 317.117 239.132 318.243 240.257C319.368 241.383 320 242.909 320 244.5V282.5C320 284.091 319.368 285.617 318.243 286.743C317.117 287.868 315.591 288.5 314 288.5H166C164.409 288.5 162.883 287.868 161.757 286.743C160.632 285.617 160 284.091 160 282.5V244.5Z" fill="#FCB045"/>
<path d="M191.42 267.68C190.494 268.977 189.506 270.211 187.222 270.15C185 270.088 183.642 268.853 183.642 266.631C183.58 262.68 187.531 262.742 191.358 262.742C191.543 260.582 190.802 259.409 188.827 259.409C187.346 259.471 186.296 259.841 186.235 261.322L184.198 261.137C184.506 258.853 186.235 257.927 188.889 257.927C191.667 257.927 193.333 259.162 193.333 261.878V266.94C193.272 268.174 193.765 268.915 195.062 268.606V269.841C193.148 270.397 191.296 269.717 191.42 267.68ZM185.679 266.631C185.679 267.866 186.42 268.668 187.654 268.668C190.185 268.483 191.543 266.878 191.358 264.1C188.704 264.224 185.679 263.792 185.679 266.631Z" fill="black"/>
<path d="M207.778 269.903H205.556L203.086 259.779L200.556 269.903H198.333L195 258.174H196.975L199.383 268.298L202.037 258.174H204.136L206.667 268.298L209.259 258.174H211.173" fill="black"/>
<path d="M219.753 267.68C218.827 268.977 217.84 270.211 215.556 270.15C213.333 270.088 211.975 268.853 211.975 266.631C211.914 262.68 215.864 262.742 219.691 262.742C219.877 260.582 219.136 259.409 217.161 259.409C215.679 259.471 214.63 259.841 214.568 261.322L212.531 261.137C212.84 258.853 214.568 257.927 217.222 257.927C220 257.927 221.667 259.162 221.667 261.878V266.94C221.605 268.174 222.099 268.915 223.395 268.606V269.841C221.481 270.397 219.63 269.717 219.753 267.68ZM214.012 266.631C214.012 267.866 214.753 268.668 215.988 268.668C218.519 268.483 219.877 266.878 219.691 264.1C217.037 264.224 214.012 263.792 214.012 266.631Z" fill="black"/>
<path d="M224.876 255.643V253.792H226.852V255.643H224.876ZM224.876 269.903V258.174H226.852V269.903H224.876Z" fill="black"/>
<path d="M231.914 267.002C231.79 268.483 233.025 268.792 234.259 268.36V269.841C232.222 270.458 229.938 270.15 229.938 267.434V259.594H228.58V258.174H230.062L230.617 255.52H231.914V258.174H234.074V259.594H231.914V267.002Z" fill="black"/>
<path d="M247.839 257.927C253.333 257.68 251.111 265.088 251.543 269.903H249.568V262.434C249.568 260.52 249.074 259.409 247.16 259.471C242.716 259.594 244.444 265.767 244.136 269.903H242.16L242.099 258.174H243.951C244.012 258.792 243.889 259.656 244.074 260.15C244.753 258.792 245.864 257.989 247.839 257.927Z" fill="black"/>
<path d="M259.136 257.927C263.025 257.927 264.444 260.52 264.321 264.471H255.988C255.988 266.94 256.852 268.606 259.259 268.668C260.864 268.73 261.914 267.927 262.284 266.878L264.012 267.372C263.333 269.1 261.728 270.15 259.259 270.15C255.679 270.15 253.827 267.866 253.889 263.977C253.951 260.211 255.494 257.927 259.136 257.927ZM262.346 262.927C262.716 259.224 257.654 258.174 256.358 261.199C256.173 261.631 255.988 262.248 255.988 262.927H262.346Z" fill="black"/>
<path d="M274.012 269.903L270.864 265.088L267.654 269.903H265.556L269.753 263.853L265.741 258.174H267.901L270.864 262.742L273.765 258.174H275.926L271.975 263.853L276.173 269.903H274.012Z" fill="black"/>
<path d="M280.062 267.002C279.938 268.483 281.173 268.792 282.407 268.36V269.841C280.37 270.458 278.086 270.15 278.086 267.434V259.594H276.728V258.174H278.21L278.765 255.52H280.062V258.174H282.222V259.594H280.062V267.002Z" fill="black"/>
<path d="M287.963 274.532C285.617 271.94 283.951 268.853 283.951 264.1C283.951 259.409 285.679 256.322 287.963 253.792H289.876C287.531 256.322 285.926 259.471 285.926 264.162C285.926 268.853 287.531 272.002 289.876 274.532H287.963Z" fill="black"/>
<path d="M291.975 253.792C294.321 256.322 295.988 259.471 295.988 264.162C295.988 268.853 294.321 272.002 291.975 274.532H290.062C292.346 272.002 294.012 268.853 294.012 264.162C294.012 259.471 292.346 256.322 290.062 253.792H291.975Z" fill="black"/>
<path d="M380 6.5C380 4.9087 380.632 3.38258 381.757 2.25736C382.883 1.13214 384.409 0.5 386 0.5H534C535.591 0.5 537.117 1.13214 538.243 2.25736C539.368 3.38258 540 4.9087 540 6.5V54.5C540 56.0913 539.368 57.6174 538.243 58.7426C537.117 59.8679 535.591 60.5 534 60.5H386C384.409 60.5 382.883 59.8679 381.757 58.7426C380.632 57.6174 380 56.0913 380 54.5V6.5Z" fill="#E2E2F0"/>
<path d="M407.685 35.7778L407.809 22.321C406.389 27.0124 404.475 31.2716 402.87 35.7778H401.451L396.451 22.321L396.512 35.7778H394.722V20.4692H397.438L402.191 33.4939C403.488 28.8642 405.339 24.8519 406.883 20.4692H409.537V35.7778H407.685Z" fill="black"/>
<path d="M412.809 21.5185V19.6667H414.784V21.5185H412.809ZM412.809 35.7778V24.0494H414.784V35.7778H412.809Z" fill="black"/>
<path d="M421.451 23.8025C423.364 23.8025 424.414 24.605 425.154 25.8395L425.093 19.6667H427.068L427.13 35.7778H425.278C425.154 35.1605 425.278 34.358 425.093 33.8642C424.475 35.284 423.364 36.0247 421.451 36.0247C418.179 36.0247 417.191 33.6173 417.13 29.9753C417.13 25.9013 418.549 23.8025 421.451 23.8025ZM422.006 25.284C419.537 25.284 419.167 27.3827 419.167 29.9136C419.167 32.3827 419.537 34.4815 421.944 34.4815C424.537 34.4815 425.093 32.5062 425.093 29.7901C425.093 27.1976 424.537 25.2222 422.006 25.284Z" fill="black"/>
<path d="M433.796 23.8025C435.71 23.8025 436.759 24.605 437.5 25.8395L437.438 19.6667H439.414L439.475 35.7778H437.623C437.5 35.1605 437.623 34.358 437.438 33.8642C436.821 35.284 435.71 36.0247 433.796 36.0247C430.525 36.0247 429.537 33.6173 429.475 29.9753C429.475 25.9013 430.895 23.8025 433.796 23.8025ZM434.352 25.284C431.883 25.284 431.512 27.3827 431.512 29.9136C431.512 32.3827 431.883 34.4815 434.29 34.4815C436.883 34.4815 437.438 32.5062 437.438 29.7901C437.438 27.1976 436.883 25.2222 434.352 25.284Z" fill="black"/>
<path d="M442.376 35.7778V19.6667H444.352V35.7778H442.376Z" fill="black"/>
<path d="M451.944 23.8025C455.833 23.8025 457.253 26.3951 457.13 30.3457H448.796C448.796 32.8148 449.66 34.4815 452.068 34.5432C453.673 34.605 454.722 33.8025 455.093 32.7531L456.821 33.2469C456.142 34.9753 454.537 36.0247 452.068 36.0247C448.488 36.0247 446.636 33.7408 446.697 29.8519C446.759 26.0864 448.302 23.8025 451.944 23.8025ZM455.154 28.8025C455.525 25.0988 450.463 24.0494 449.167 27.0741C448.981 27.5062 448.796 28.1235 448.796 28.8025H455.154Z" fill="black"/>
<path d="M470.833 35.7778H468.611L466.142 25.6543L463.611 35.7778H461.389L458.055 24.0494H460.031L462.438 34.1728L465.093 24.0494H467.191L469.722 34.1728L472.315 24.0494H474.228" fill="black"/>
<path d="M482.809 33.5556C481.883 34.8519 480.895 36.0864 478.611 36.0247C476.389 35.963 475.031 34.7284 475.031 32.5062C474.969 28.5556 478.92 28.6173 482.747 28.6173C482.932 26.4568 482.191 25.284 480.216 25.284C478.735 25.3457 477.685 25.7161 477.623 27.1976L475.586 27.0124C475.895 24.7284 477.623 23.8025 480.278 23.8025C483.055 23.8025 484.722 25.0371 484.722 27.7531V32.8148C484.66 34.0494 485.154 34.7901 486.451 34.4815V35.7161C484.537 36.2716 482.685 35.5926 482.809 33.5556ZM477.068 32.5062C477.068 33.7408 477.809 34.5432 479.043 34.5432C481.574 34.358 482.932 32.7531 482.747 29.9753C480.093 30.0988 477.068 29.6667 477.068 32.5062Z" fill="black"/>
<path d="M493.488 25.7161C488.673 24.7284 490.216 31.3334 489.969 35.7778H487.994L487.932 24.0494H489.784C489.846 24.7901 489.722 25.8395 489.907 26.4568C490.278 24.7901 491.327 23.4321 493.488 23.9259V25.7161Z" fill="black"/>
<path d="M499.969 23.8025C503.858 23.8025 505.278 26.3951 505.154 30.3457H496.821C496.821 32.8148 497.685 34.4815 500.093 34.5432C501.698 34.605 502.747 33.8025 503.117 32.7531L504.846 33.2469C504.167 34.9753 502.562 36.0247 500.093 36.0247C496.512 36.0247 494.66 33.7408 494.722 29.8519C494.784 26.0864 496.327 23.8025 499.969 23.8025ZM503.179 28.8025C503.549 25.0988 498.488 24.0494 497.191 27.0741C497.006 27.5062 496.821 28.1235 496.821 28.8025H503.179Z" fill="black"/>
<path d="M522.191 27.6913C524.352 28 525.957 29.1111 525.957 31.4568C525.957 36.8271 519.414 35.6543 514.167 35.7778V20.4691C518.858 20.6543 525.093 19.4197 525.093 24.1728C525.093 26.2099 523.92 27.2592 522.191 27.6913ZM516.204 27.0123C519.29 26.9506 522.994 27.5679 522.994 24.4197C522.994 21.5185 519.105 22.1975 516.204 22.1358V27.0123ZM516.204 34.1111C519.599 33.9876 523.858 34.9753 523.858 31.3333C523.858 27.8765 519.537 28.7407 516.204 28.6173V34.1111Z" fill="black"/>
<path d="M460 427V422.3M460 412.94V403.56M460 394.19V389.5" stroke="white"/>
<path d="M461 428H459V426.97H461V428ZM461 389.53H459V388.5H461V389.53Z" fill="#3A414A" stroke="#3A414A" stroke-width="0.05"/>
<path d="M460 337.5V333.54M460 325.64V317.71M460 309.81V301.88M460 293.98V290.01" stroke="#3A414A" stroke-width="2"/>
<path d="M461 338.5H459V337.47H461V338.5ZM461 290.03H459V289H461V290.03Z" fill="#3A414A" stroke="#3A414A" stroke-width="0.05"/>
<path d="M460 237V233M460 225.03V217.06M460 209.08V201.1M460 193.13V185.15M460 177.17V169.2M460 161.22V153.24M460 145.26V137.28M460 129.31V121.34M460 113.36V105.38M460 97.41V89.43M460 81.45V73.48M460 65.5V61.5" stroke="#CCCCCC"/>
<path d="M461 238H459V236.97H461V238ZM461 61.53H459V60.5H461V61.53Z" fill="#3A414A" stroke="#3A414A" stroke-width="0.05"/>
<path d="M380 244.5C380 242.909 380.632 241.383 381.757 240.257C382.883 239.132 384.409 238.5 386 238.5H534C535.591 238.5 537.117 239.132 538.243 240.257C539.368 241.383 540 242.909 540 244.5V282.5C540 284.091 539.368 285.617 538.243 286.743C537.117 287.868 535.591 288.5 534 288.5H386C384.409 288.5 382.883 287.868 381.757 286.743C380.632 285.617 380 284.091 380 282.5V244.5Z" fill="white"/>
<path d="M407.315 259.471C404.846 259.471 404.352 261.508 404.352 263.977C404.352 266.446 404.907 268.606 407.315 268.606C408.796 268.606 409.846 267.742 409.969 266.261L411.944 266.384C411.574 268.668 410.031 270.15 407.377 270.15C403.735 270.15 402.685 267.619 402.315 264.039C401.698 258.298 408.549 255.952 411.389 260.088C411.636 260.52 411.698 260.952 411.821 261.446L409.846 261.631C409.599 260.335 408.858 259.471 407.315 259.471Z" fill="#3A414A"/>
<path d="M418.673 257.927C422.5 257.866 423.92 260.211 423.92 264.039C423.982 267.927 422.253 270.15 418.611 270.15C414.969 270.15 413.488 267.742 413.426 264.039C413.426 259.964 415.154 257.927 418.673 257.927ZM418.611 268.668C421.327 268.73 421.883 266.755 421.883 264.039C421.883 261.384 421.389 259.409 418.735 259.409C416.08 259.409 415.463 261.384 415.463 264.039C415.463 266.693 416.08 268.606 418.611 268.668Z" fill="#3A414A"/>
<path d="M430.093 257.927C432.006 257.927 433.056 258.73 433.796 259.964L433.735 253.792H435.71L435.772 269.903H433.92C433.796 269.285 433.92 268.483 433.735 267.989C433.117 269.409 432.006 270.15 430.093 270.15C426.821 270.15 425.833 267.742 425.772 264.1C425.772 260.026 427.191 257.927 430.093 257.927ZM430.648 259.409C428.179 259.409 427.809 261.508 427.809 264.039C427.809 266.508 428.179 268.606 430.586 268.606C433.179 268.606 433.735 266.631 433.735 263.915C433.735 261.322 433.179 259.347 430.648 259.409Z" fill="#3A414A"/>
<path d="M443.364 257.927C447.253 257.927 448.673 260.52 448.549 264.471H440.216C440.216 266.94 441.08 268.606 443.488 268.668C445.093 268.73 446.142 267.927 446.512 266.878L448.241 267.372C447.562 269.1 445.957 270.15 443.488 270.15C439.907 270.15 438.056 267.866 438.117 263.977C438.179 260.211 439.722 257.927 443.364 257.927ZM446.574 262.927C446.944 259.224 441.883 258.174 440.586 261.199C440.401 261.631 440.216 262.248 440.216 262.927H446.574Z" fill="#3A414A"/>
<path d="M462.809 257.927C466.08 257.927 467.068 260.335 467.13 263.977C467.13 268.051 465.71 270.15 462.809 270.15C460.895 270.088 459.784 269.471 459.167 268.051L459.043 269.903H457.13L457.191 253.792H459.167V260.026C459.784 258.606 460.895 257.927 462.809 257.927ZM462.315 268.668C464.784 268.668 465.093 266.569 465.093 264.039C465.093 261.569 464.784 259.409 462.315 259.471C459.722 259.471 459.167 261.446 459.167 264.162C459.167 266.816 459.784 268.668 462.315 268.668Z" fill="#3A414A"/>
<path d="M474.228 257.927C478.117 257.927 479.537 260.52 479.414 264.471H471.08C471.08 266.94 471.944 268.607 474.352 268.668C475.957 268.73 477.006 267.927 477.377 266.878L479.105 267.372C478.426 269.1 476.821 270.15 474.352 270.15C470.772 270.15 468.92 267.866 468.981 263.977C469.043 260.211 470.586 257.927 474.228 257.927ZM477.438 262.927C477.809 259.224 472.747 258.174 471.451 261.199C471.265 261.631 471.08 262.248 471.08 262.927H477.438Z" fill="#3A414A"/>
<path d="M486.636 255.458C484.722 254.903 484.043 256.076 484.29 258.174H486.636V259.594H484.29V269.903H482.377V259.594H480.71V258.174H482.377C481.944 254.964 483.426 253.113 486.636 253.977V255.458Z" fill="#3A414A"/>
<path d="M492.747 257.927C496.574 257.866 497.994 260.211 497.994 264.039C498.056 267.927 496.327 270.15 492.685 270.15C489.043 270.15 487.562 267.742 487.5 264.039C487.5 259.964 489.228 257.927 492.747 257.927ZM492.685 268.668C495.401 268.73 495.957 266.755 495.957 264.039C495.957 261.384 495.463 259.409 492.809 259.409C490.154 259.409 489.537 261.384 489.537 264.039C489.537 266.693 490.154 268.606 492.685 268.668Z" fill="#3A414A"/>
<path d="M505.957 259.841C501.142 258.853 502.685 265.458 502.438 269.903H500.463L500.401 258.174H502.253C502.315 258.915 502.191 259.964 502.377 260.582C502.747 258.915 503.796 257.557 505.957 258.051V259.841Z" fill="#3A414A"/>
<path d="M512.438 257.927C516.327 257.927 517.747 260.52 517.623 264.471H509.29C509.29 266.94 510.154 268.607 512.562 268.668C514.167 268.73 515.216 267.927 515.586 266.878L517.315 267.372C516.636 269.1 515.031 270.15 512.562 270.15C508.981 270.15 507.13 267.866 507.191 263.977C507.253 260.211 508.796 257.927 512.438 257.927ZM515.648 262.927C516.019 259.224 510.957 258.174 509.661 261.199C509.475 261.631 509.29 262.248 509.29 262.927H515.648Z" fill="#3A414A"/>
<path d="M380 344.5C380 342.909 380.632 341.383 381.757 340.257C382.883 339.132 384.409 338.5 386 338.5H534C535.591 338.5 537.117 339.132 538.243 340.257C539.368 341.383 540 342.909 540 344.5V382.5C540 384.091 539.368 385.617 538.243 386.743C537.117 387.868 535.591 388.5 534 388.5H386C384.409 388.5 382.883 387.868 381.757 386.743C380.632 385.617 380 384.091 380 382.5V344.5Z" fill="#FCB045"/>
<path d="M411.42 367.68C410.494 368.977 409.506 370.211 407.222 370.15C405 370.088 403.642 368.853 403.642 366.631C403.58 362.68 407.531 362.742 411.358 362.742C411.543 360.582 410.803 359.409 408.827 359.409C407.346 359.471 406.296 359.841 406.235 361.322L404.198 361.137C404.506 358.853 406.235 357.927 408.889 357.927C411.667 357.927 413.333 359.162 413.333 361.878V366.94C413.272 368.174 413.766 368.915 415.062 368.606V369.841C413.148 370.397 411.296 369.717 411.42 367.68ZM405.679 366.631C405.679 367.866 406.42 368.668 407.654 368.668C410.185 368.483 411.543 366.878 411.358 364.1C408.704 364.224 405.679 363.792 405.679 366.631Z" fill="black"/>
<path d="M427.778 369.903H425.556L423.087 359.779L420.556 369.903H418.333L415 358.174H416.975L419.383 368.298L422.037 358.174H424.136L426.667 368.298L429.259 358.174H431.173" fill="black"/>
<path d="M439.753 367.68C438.827 368.977 437.84 370.211 435.556 370.15C433.333 370.088 431.975 368.853 431.975 366.631C431.914 362.68 435.864 362.742 439.691 362.742C439.877 360.582 439.136 359.409 437.161 359.409C435.679 359.471 434.63 359.841 434.568 361.322L432.531 361.137C432.84 358.853 434.568 357.927 437.222 357.927C440 357.927 441.667 359.162 441.667 361.878V366.94C441.605 368.174 442.099 368.915 443.395 368.606V369.841C441.482 370.397 439.63 369.717 439.753 367.68ZM434.012 366.631C434.012 367.866 434.753 368.668 435.988 368.668C438.519 368.483 439.877 366.878 439.691 364.1C437.037 364.224 434.012 363.792 434.012 366.631Z" fill="black"/>
<path d="M444.877 355.643V353.792H446.852V355.643H444.877ZM444.877 369.903V358.174H446.852V369.903H444.877Z" fill="black"/>
<path d="M451.914 367.002C451.79 368.483 453.025 368.792 454.259 368.36V369.841C452.222 370.458 449.938 370.15 449.938 367.434V359.594H448.58V358.174H450.062L450.617 355.52H451.914V358.174H454.074V359.594H451.914V367.002Z" fill="black"/>
<path d="M467.84 357.927C473.333 357.68 471.111 365.088 471.543 369.903H469.568V362.434C469.568 360.52 469.074 359.409 467.161 359.471C462.716 359.594 464.444 365.767 464.136 369.903H462.161L462.099 358.174H463.951C464.012 358.792 463.889 359.656 464.074 360.15C464.753 358.792 465.864 357.989 467.84 357.927Z" fill="black"/>
<path d="M479.136 357.927C483.025 357.927 484.445 360.52 484.321 364.471H475.988C475.988 366.94 476.852 368.606 479.259 368.668C480.864 368.73 481.914 367.927 482.284 366.878L484.012 367.372C483.333 369.1 481.728 370.15 479.259 370.15C475.679 370.15 473.827 367.866 473.889 363.977C473.951 360.211 475.494 357.927 479.136 357.927ZM482.346 362.927C482.716 359.224 477.654 358.174 476.358 361.199C476.173 361.631 475.988 362.248 475.988 362.927H482.346Z" fill="black"/>
<path d="M494.012 369.903L490.864 365.088L487.654 369.903H485.556L489.753 363.853L485.741 358.174H487.901L490.864 362.742L493.765 358.174H495.926L491.975 363.853L496.173 369.903H494.012Z" fill="black"/>
<path d="M500.062 367.002C499.938 368.483 501.173 368.792 502.407 368.36V369.841C500.37 370.458 498.086 370.15 498.086 367.434V359.594H496.728V358.174H498.21L498.765 355.52H500.062V358.174H502.222V359.594H500.062V367.002Z" fill="black"/>
<path d="M507.963 374.532C505.617 371.94 503.951 368.853 503.951 364.1C503.951 359.409 505.679 356.322 507.963 353.792H509.877C507.531 356.322 505.926 359.471 505.926 364.162C505.926 368.853 507.531 372.002 509.877 374.532H507.963Z" fill="black"/>
<path d="M511.975 353.792C514.321 356.322 515.988 359.471 515.988 364.162C515.988 368.853 514.321 372.002 511.975 374.532H510.062C512.346 372.002 514.012 368.853 514.012 364.162C514.012 359.471 512.346 356.322 510.062 353.792H511.975Z" fill="black"/>
<path d="M321 263.5H361" stroke="white" stroke-width="2"/>
<path d="M321.03 264.5H320V262.5H321.03V264.5Z" fill="#3A414A" stroke="#3A414A" stroke-width="0.05"/>
<path d="M376.26 263.5L362 268.13V258.87L376.26 263.5Z" fill="white" stroke="white" stroke-width="2"/>
<path d="M240 190V220" stroke="white" stroke-width="2"/>
<path d="M241 190.03H239V189H241V190.03Z" fill="#3A414A" stroke="#3A414A" stroke-width="0.05"/>
<path d="M240 235.26L235.37 221H244.63L240 235.26Z" fill="white" stroke="white" stroke-width="2"/>
<path d="M460 290V320" stroke="white" stroke-width="2"/>
<path d="M461 290.03H459V289H461V290.03Z" fill="#3A414A" stroke="#3A414A" stroke-width="0.05"/>
<path d="M460 335.26L455.37 321H464.63L460 335.26Z" fill="white" stroke="white" stroke-width="2"/>
<path d="M600 6.5C600 4.9087 600.632 3.38258 601.757 2.25736C602.883 1.13214 604.409 0.5 606 0.5H754C755.591 0.5 757.117 1.13214 758.243 2.25736C759.368 3.38258 760 4.9087 760 6.5V54.5C760 56.0913 759.368 57.6174 758.243 58.7426C757.117 59.8679 755.591 60.5 754 60.5H606C604.409 60.5 602.883 59.8679 601.757 58.7426C600.632 57.6174 600 56.0913 600 54.5V6.5Z" fill="#E2E2F0"/>
<path d="M632.87 35.7778L631.142 31.3333H624.167L622.438 35.7778H620.278L626.512 20.4691H628.858L634.969 35.7778H632.87ZM630.525 29.6666L627.623 22.0741C626.883 24.8518 625.71 27.1358 624.784 29.6666H630.525Z" fill="black"/>
<path d="M636.883 20.4691C642.253 20.5309 648.673 19.5432 648.673 25.0988C648.673 29.9136 643.92 30.037 638.92 29.7901V35.7778H636.883V20.4691ZM638.92 28.1852C642.438 28.1852 646.574 28.8642 646.574 25.0988C646.574 21.4568 642.377 22.1975 638.92 22.1358V28.1852Z" fill="black"/>
<path d="M651.883 35.7778V20.4691H653.981V35.7778H651.883Z" fill="black"/>
<path d="M674.352 35.7778V28.6791H666.08V35.7778H664.043V20.4692H666.08V26.9507H674.352V20.4692H676.451V35.7778H674.352Z" fill="black"/>
<path d="M686.883 33.5556C685.957 34.8519 684.969 36.0864 682.685 36.0247C680.463 35.963 679.105 34.7284 679.105 32.5062C679.043 28.5556 682.994 28.6173 686.821 28.6173C687.006 26.4568 686.265 25.284 684.29 25.284C682.809 25.3457 681.759 25.7161 681.698 27.1976L679.661 27.0124C679.969 24.7284 681.698 23.8025 684.352 23.8025C687.13 23.8025 688.796 25.0371 688.796 27.7531V32.8148C688.735 34.0494 689.228 34.7901 690.525 34.4815V35.7161C688.611 36.2716 686.759 35.5926 686.883 33.5556ZM681.142 32.5062C681.142 33.7408 681.883 34.5432 683.117 34.5432C685.648 34.358 687.006 32.7531 686.821 29.9753C684.167 30.0988 681.142 29.6667 681.142 32.5062Z" fill="black"/>
<path d="M697.747 23.8025C703.241 23.5556 701.019 30.963 701.451 35.7778H699.475V28.3086C699.475 26.3951 698.981 25.2839 697.068 25.3457C692.623 25.4691 694.352 31.642 694.043 35.7778H692.068L692.006 24.0494H693.858C693.92 24.6667 693.796 25.5309 693.981 26.0247C694.66 24.6667 695.772 23.8642 697.747 23.8025Z" fill="black"/>
<path d="M708.117 23.8025C710.031 23.8025 711.08 24.605 711.821 25.8395L711.759 19.6667H713.735L713.796 35.7778H711.944C711.821 35.1605 711.944 34.358 711.759 33.8642C711.142 35.284 710.031 36.0247 708.117 36.0247C704.846 36.0247 703.858 33.6173 703.796 29.9753C703.796 25.9013 705.216 23.8025 708.117 23.8025ZM708.673 25.284C706.204 25.284 705.833 27.3827 705.833 29.9136C705.833 32.3827 706.204 34.4815 708.611 34.4815C711.204 34.4815 711.759 32.5062 711.759 29.7901C711.759 27.1976 711.204 25.2222 708.673 25.284Z" fill="black"/>
<path d="M716.698 35.7778V19.6667H718.673V35.7778H716.698Z" fill="black"/>
<path d="M726.265 23.8025C730.154 23.8025 731.574 26.3951 731.451 30.3457H723.117C723.117 32.8148 723.981 34.4815 726.389 34.5432C727.994 34.605 729.043 33.8025 729.414 32.7531L731.142 33.2469C730.463 34.9753 728.858 36.0247 726.389 36.0247C722.809 36.0247 720.957 33.7408 721.019 29.8519C721.08 26.0864 722.623 23.8025 726.265 23.8025ZM729.475 28.8025C729.846 25.0988 724.784 24.0494 723.488 27.0741C723.302 27.5062 723.117 28.1235 723.117 28.8025H729.475Z" fill="black"/>
<path d="M739.475 25.7161C734.66 24.7284 736.204 31.3334 735.957 35.7778H733.981L733.92 24.0494H735.772C735.833 24.7901 735.71 25.8395 735.895 26.4568C736.265 24.7901 737.315 23.4321 739.475 23.9259V25.7161Z" fill="black"/>
<path d="M680 335.75V331.72M680 323.65V315.59M680 307.51V299.44M680 291.38V283.3M680 275.23V267.17M680 259.09V251.03M680 242.96V234.88M680 226.82V218.75M680 210.67V202.61M680 194.54V186.47M680 178.4V170.4M680 162.33V154.26M680 146.2V138.13M680 130.06V122M680 113.93V105.86M680 97.8V89.73M680 81.66V73.6M680 65.53V61.5" stroke="#CCCCCC"/>
<path d="M681 336.75H679V335.72H681V336.75ZM681 61.53H679V60.5H681V61.53Z" fill="#3A414A" stroke="#3A414A" stroke-width="0.05"/>
<path d="M600 343.25C600 341.659 600.632 340.133 601.757 339.007C602.883 337.882 604.409 337.25 606 337.25H754C755.591 337.25 757.117 337.882 758.243 339.007C759.368 340.133 760 341.659 760 343.25V383.75C760 385.341 759.368 386.867 758.243 387.993C757.117 389.118 755.591 389.75 754 389.75H606C604.409 389.75 602.883 389.118 601.757 387.993C600.632 386.867 600 385.341 600 383.75V343.25Z" fill="white"/>
<path d="M641.79 358.408C637.654 358.593 639.444 364.89 639.074 368.84H637.161V361.371C637.161 359.581 636.852 358.285 635 358.408C630.926 358.655 632.654 364.828 632.284 368.84H630.37L630.309 357.112H632.161C632.222 357.729 632.099 358.593 632.284 359.087C632.901 356.371 638.395 356.001 638.889 359.087C639.568 357.791 640.556 356.927 642.469 356.865C647.716 356.741 645.37 364.211 645.864 368.84H643.951V361.371C643.951 359.581 643.642 358.346 641.79 358.408Z" fill="#3A414A"/>
<path d="M655.988 366.618C655.062 367.914 654.074 369.149 651.79 369.087C649.568 369.025 648.21 367.791 648.21 365.569C648.148 361.618 652.099 361.68 655.926 361.68C656.111 359.519 655.37 358.346 653.395 358.346C651.914 358.408 650.864 358.778 650.802 360.26L648.765 360.075C649.074 357.791 650.802 356.865 653.457 356.865C656.235 356.865 657.901 358.099 657.901 360.815V365.877C657.84 367.112 658.333 367.853 659.63 367.544V368.778C657.716 369.334 655.864 368.655 655.988 366.618ZM650.247 365.569C650.247 366.803 650.988 367.606 652.222 367.606C654.753 367.42 656.111 365.815 655.926 363.038C653.272 363.161 650.247 362.729 650.247 365.569Z" fill="#3A414A"/>
<path d="M661.111 354.581V352.729H663.086V354.581H661.111ZM661.111 368.84V357.112H663.086V368.84H661.111Z" fill="#3A414A"/>
<path d="M671.728 356.865C677.222 356.618 675 364.025 675.432 368.84H673.457V361.371C673.457 359.457 672.963 358.346 671.049 358.408C666.605 358.532 668.333 364.704 668.025 368.84H666.049L665.988 357.112H667.84C667.901 357.729 667.778 358.593 667.963 359.087C668.642 357.729 669.753 356.927 671.728 356.865Z" fill="#3A414A"/>
<path d="M688.951 358.408C686.482 358.408 685.988 360.445 685.988 362.914C685.988 365.383 686.543 367.544 688.951 367.544C690.432 367.544 691.482 366.68 691.605 365.198L693.58 365.322C693.21 367.606 691.667 369.087 689.012 369.087C685.37 369.087 684.321 366.556 683.951 362.976C683.333 357.235 690.185 354.89 693.025 359.025C693.272 359.458 693.333 359.89 693.457 360.383L691.482 360.569C691.235 359.272 690.494 358.408 688.951 358.408Z" fill="#3A414A"/>
<path d="M700.309 356.865C704.136 356.803 705.556 359.149 705.556 362.976C705.617 366.865 703.889 369.087 700.247 369.087C696.605 369.087 695.123 366.68 695.062 362.976C695.062 358.902 696.79 356.865 700.309 356.865ZM700.247 367.606C702.963 367.667 703.519 365.692 703.519 362.976C703.519 360.322 703.025 358.346 700.37 358.346C697.716 358.346 697.099 360.322 697.099 362.976C697.099 365.63 697.716 367.544 700.247 367.606Z" fill="#3A414A"/>
<path d="M711.728 356.865C713.642 356.865 714.691 357.667 715.432 358.902L715.37 352.729H717.346L717.407 368.84H715.556C715.432 368.223 715.556 367.42 715.37 366.927C714.753 368.346 713.642 369.087 711.728 369.087C708.457 369.087 707.469 366.68 707.407 363.038C707.407 358.964 708.827 356.865 711.728 356.865ZM712.284 358.346C709.815 358.346 709.445 360.445 709.445 362.976C709.445 365.445 709.815 367.544 712.222 367.544C714.815 367.544 715.37 365.569 715.37 362.853C715.37 360.26 714.815 358.285 712.284 358.346Z" fill="#3A414A"/>
<path d="M725 356.865C728.889 356.865 730.309 359.457 730.185 363.408H721.852C721.852 365.877 722.716 367.544 725.124 367.606C726.728 367.667 727.778 366.865 728.148 365.815L729.877 366.309C729.198 368.038 727.593 369.087 725.124 369.087C721.543 369.087 719.691 366.803 719.753 362.914C719.815 359.149 721.358 356.865 725 356.865ZM728.21 361.865C728.58 358.161 723.519 357.112 722.222 360.136C722.037 360.569 721.852 361.186 721.852 361.865H728.21Z" fill="#3A414A"/>
<path d="M541 363.5H581" stroke="white" stroke-width="2"/>
<path d="M541.03 364.5H540V362.5H541.03V364.5Z" fill="#3A414A" stroke="#3A414A" stroke-width="0.05"/>
<path d="M596.26 363.5L582 368.13V358.87L596.26 363.5Z" fill="white" stroke="white" stroke-width="2"/>
<path d="M660 439.5C660 437.909 660.632 436.383 661.757 435.257C662.883 434.132 664.409 433.5 666 433.5H694C695.591 433.5 697.117 434.132 698.243 435.257C699.368 436.383 700 437.909 700 439.5V467.5C700 469.091 699.368 470.617 698.243 471.743C697.117 472.868 695.591 473.5 694 473.5H666C664.409 473.5 662.883 472.868 661.757 471.743C660.632 470.617 660 469.091 660 467.5V439.5Z" fill="white"/>
<path d="M680 391.25V394.65M680 401.45V408.23M680 415.03V421.81M680 428.61V432.01" stroke="#3A414A" stroke-width="2"/>
<path d="M681 391.28H679V390.25H681V391.28ZM681 433H679V431.97H681V433Z" fill="#3A414A" stroke="#3A414A" stroke-width="0.05"/>
<path d="M380 434.5C380 432.909 380.632 431.383 381.757 430.257C382.883 429.132 384.409 428.5 386 428.5H534C535.591 428.5 537.117 429.132 538.243 430.257C539.368 431.383 540 432.909 540 434.5V472.5C540 474.091 539.368 475.617 538.243 476.743C537.117 477.868 535.591 478.5 534 478.5H386C384.409 478.5 382.883 477.868 381.757 476.743C380.632 475.617 380 474.091 380 472.5V434.5Z" fill="white"/>
<path d="M416.574 449.471C414.105 449.471 413.611 451.508 413.611 453.977C413.611 456.446 414.167 458.606 416.574 458.606C418.056 458.606 419.105 457.742 419.228 456.261L421.204 456.384C420.833 458.668 419.29 460.15 416.636 460.15C412.994 460.15 411.944 457.619 411.574 454.039C410.957 448.298 417.809 445.952 420.648 450.088C420.895 450.52 420.957 450.952 421.08 451.446L419.105 451.631C418.858 450.335 418.117 449.471 416.574 449.471Z" fill="#3A414A"/>
<path d="M427.932 447.927C431.759 447.866 433.179 450.211 433.179 454.039C433.241 457.927 431.512 460.15 427.87 460.15C424.228 460.15 422.747 457.742 422.685 454.039C422.685 449.964 424.414 447.927 427.932 447.927ZM427.87 458.668C430.586 458.73 431.142 456.755 431.142 454.039C431.142 451.384 430.648 449.409 427.994 449.409C425.339 449.409 424.722 451.384 424.722 454.039C424.722 456.693 425.339 458.606 427.87 458.668Z" fill="#3A414A"/>
<path d="M439.352 447.927C441.265 447.927 442.315 448.73 443.056 449.964L442.994 443.792H444.969L445.031 459.903H443.179C443.056 459.285 443.179 458.483 442.994 457.989C442.377 459.409 441.265 460.15 439.352 460.15C436.08 460.15 435.093 457.742 435.031 454.1C435.031 450.026 436.451 447.927 439.352 447.927ZM439.907 449.409C437.438 449.409 437.068 451.508 437.068 454.039C437.068 456.508 437.438 458.606 439.846 458.606C442.438 458.606 442.994 456.631 442.994 453.915C442.994 451.322 442.438 449.347 439.907 449.409Z" fill="#3A414A"/>
<path d="M452.623 447.927C456.512 447.927 457.932 450.52 457.809 454.471H449.475C449.475 456.94 450.339 458.606 452.747 458.668C454.352 458.73 455.401 457.927 455.772 456.878L457.5 457.372C456.821 459.1 455.216 460.15 452.747 460.15C449.167 460.15 447.315 457.866 447.376 453.977C447.438 450.211 448.981 447.927 452.623 447.927ZM455.833 452.927C456.204 449.224 451.142 448.174 449.846 451.199C449.66 451.631 449.475 452.248 449.475 452.927H455.833Z" fill="#3A414A"/>
<path d="M473.673 457.681C472.747 458.977 471.759 460.211 469.475 460.15C467.253 460.088 465.895 458.853 465.895 456.631C465.833 452.681 469.784 452.742 473.611 452.742C473.796 450.582 473.056 449.409 471.08 449.409C469.599 449.471 468.549 449.841 468.488 451.323L466.451 451.137C466.759 448.853 468.488 447.927 471.142 447.927C473.92 447.927 475.586 449.162 475.586 451.878V456.94C475.525 458.174 476.019 458.915 477.315 458.607V459.841C475.401 460.397 473.549 459.718 473.673 457.681ZM467.932 456.631C467.932 457.866 468.673 458.668 469.907 458.668C472.438 458.483 473.796 456.878 473.611 454.1C470.957 454.224 467.932 453.792 467.932 456.631Z" fill="#3A414A"/>
<path d="M483.549 445.458C481.636 444.903 480.957 446.076 481.204 448.174H483.549V449.594H481.204V459.903H479.29V449.594H477.623V448.174H479.29C478.858 444.964 480.34 443.113 483.549 443.977V445.458Z" fill="#3A414A"/>
<path d="M487.13 457.002C487.006 458.483 488.241 458.792 489.475 458.36V459.841C487.438 460.458 485.154 460.15 485.154 457.434V449.594H483.796V448.174H485.278L485.833 445.52H487.13V448.174H489.29V449.594H487.13V457.002Z" fill="#3A414A"/>
<path d="M495.833 447.927C499.722 447.927 501.142 450.52 501.018 454.471H492.685C492.685 456.94 493.549 458.607 495.957 458.668C497.562 458.73 498.611 457.927 498.981 456.878L500.71 457.372C500.031 459.1 498.426 460.15 495.957 460.15C492.377 460.15 490.525 457.866 490.586 453.977C490.648 450.211 492.191 447.927 495.833 447.927ZM499.043 452.927C499.414 449.224 494.352 448.174 493.056 451.199C492.87 451.631 492.685 452.248 492.685 452.927H499.043Z" fill="#3A414A"/>
<path d="M509.043 449.841C504.228 448.853 505.772 455.458 505.525 459.903H503.549L503.488 448.174H505.34C505.401 448.915 505.278 449.964 505.463 450.582C505.833 448.915 506.883 447.557 509.043 448.051V449.841Z" fill="#3A414A"/>
<path d="M658.5 453.5H559Z" fill="white"/>
<path d="M658.5 453.5H559" stroke="white" stroke-width="2"/>
<path d="M659.5 454.5H658.47V452.5H659.5V454.5Z" fill="#3A414A" stroke="#3A414A" stroke-width="0.05"/>
<path d="M543.74 453.5L558 448.87V458.13L543.74 453.5Z" fill="white" stroke="white" stroke-width="2"/>
<path d="M160 524.5C160 522.909 160.632 521.383 161.757 520.257C162.883 519.132 164.409 518.5 166 518.5H314C315.591 518.5 317.117 519.132 318.243 520.257C319.368 521.383 320 522.909 320 524.5V562.5C320 564.091 319.368 565.617 318.243 566.743C317.117 567.868 315.591 568.5 314 568.5H166C164.409 568.5 162.883 567.868 161.757 566.743C160.632 565.617 160 564.091 160 562.5V524.5Z" fill="white"/>
<path d="M196.574 539.471C194.105 539.471 193.611 541.508 193.611 543.977C193.611 546.446 194.167 548.606 196.574 548.606C198.056 548.606 199.105 547.742 199.228 546.261L201.204 546.384C200.833 548.668 199.29 550.15 196.636 550.15C192.994 550.15 191.944 547.619 191.574 544.039C190.957 538.298 197.809 535.952 200.648 540.088C200.895 540.52 200.957 540.952 201.08 541.446L199.105 541.631C198.858 540.335 198.117 539.471 196.574 539.471Z" fill="#3A414A"/>
<path d="M207.932 537.927C211.759 537.866 213.179 540.211 213.179 544.039C213.241 547.927 211.512 550.15 207.87 550.15C204.228 550.15 202.747 547.742 202.685 544.039C202.685 539.964 204.414 537.927 207.932 537.927ZM207.87 548.668C210.586 548.73 211.142 546.755 211.142 544.039C211.142 541.384 210.648 539.409 207.994 539.409C205.34 539.409 204.722 541.384 204.722 544.039C204.722 546.693 205.34 548.606 207.87 548.668Z" fill="#3A414A"/>
<path d="M219.352 537.927C221.265 537.927 222.315 538.73 223.055 539.964L222.994 533.792H224.969L225.031 549.903H223.179C223.055 549.285 223.179 548.483 222.994 547.989C222.376 549.409 221.265 550.15 219.352 550.15C216.08 550.15 215.092 547.742 215.031 544.1C215.031 540.026 216.451 537.927 219.352 537.927ZM219.907 539.409C217.438 539.409 217.068 541.508 217.068 544.039C217.068 546.508 217.438 548.606 219.846 548.606C222.438 548.606 222.994 546.631 222.994 543.915C222.994 541.322 222.438 539.347 219.907 539.409Z" fill="#3A414A"/>
<path d="M232.623 537.927C236.512 537.927 237.932 540.52 237.809 544.471H229.475C229.475 546.94 230.339 548.606 232.747 548.668C234.352 548.73 235.401 547.927 235.772 546.878L237.5 547.372C236.821 549.1 235.216 550.15 232.747 550.15C229.167 550.15 227.315 547.866 227.376 543.977C227.438 540.211 228.981 537.927 232.623 537.927ZM235.833 542.927C236.204 539.224 231.142 538.174 229.846 541.199C229.66 541.631 229.475 542.248 229.475 542.927H235.833Z" fill="#3A414A"/>
<path d="M253.673 547.681C252.747 548.977 251.759 550.211 249.475 550.15C247.253 550.088 245.895 548.853 245.895 546.631C245.833 542.681 249.784 542.742 253.611 542.742C253.796 540.582 253.055 539.409 251.08 539.409C249.599 539.471 248.549 539.841 248.488 541.323L246.451 541.137C246.759 538.853 248.488 537.927 251.142 537.927C253.92 537.927 255.586 539.162 255.586 541.878V546.94C255.525 548.174 256.018 548.915 257.315 548.607V549.841C255.401 550.397 253.549 549.718 253.673 547.681ZM247.932 546.631C247.932 547.866 248.673 548.668 249.907 548.668C252.438 548.483 253.796 546.878 253.611 544.1C250.957 544.224 247.932 543.792 247.932 546.631Z" fill="#3A414A"/>
<path d="M263.549 535.458C261.636 534.903 260.957 536.076 261.204 538.174H263.549V539.594H261.204V549.903H259.29V539.594H257.623V538.174H259.29C258.858 534.964 260.339 533.113 263.549 533.977V535.458Z" fill="#3A414A"/>
<path d="M267.13 547.002C267.006 548.483 268.241 548.792 269.475 548.36V549.841C267.438 550.458 265.154 550.15 265.154 547.434V539.594H263.796V538.174H265.278L265.833 535.52H267.13V538.174H269.29V539.594H267.13V547.002Z" fill="#3A414A"/>
<path d="M275.833 537.927C279.722 537.927 281.142 540.52 281.018 544.471H272.685C272.685 546.94 273.549 548.607 275.957 548.668C277.562 548.73 278.611 547.927 278.981 546.878L280.71 547.372C280.031 549.1 278.426 550.15 275.957 550.15C272.376 550.15 270.525 547.866 270.586 543.977C270.648 540.211 272.191 537.927 275.833 537.927ZM279.043 542.927C279.413 539.224 274.352 538.174 273.055 541.199C272.87 541.631 272.685 542.248 272.685 542.927H279.043Z" fill="#3A414A"/>
<path d="M289.043 539.841C284.228 538.853 285.771 545.458 285.525 549.903H283.549L283.488 538.174H285.339C285.401 538.915 285.278 539.964 285.463 540.582C285.833 538.915 286.883 537.557 289.043 538.051V539.841Z" fill="#3A414A"/>
<path d="M460 522V518.5M460 511.5V504.5M460 497.5V490.5M460 483.5V480" stroke="#3A414A" stroke-width="2"/>
<path d="M461 523H459V521.97H461V523ZM461 480.03H459V479H461V480.03Z" fill="#3A414A" stroke="#3A414A" stroke-width="0.05"/>
<path d="M440 529.5C440 527.909 440.632 526.383 441.757 525.257C442.883 524.132 444.409 523.5 446 523.5H474C475.591 523.5 477.117 524.132 478.243 525.257C479.368 526.383 480 527.909 480 529.5V557.5C480 559.091 479.368 560.617 478.243 561.743C477.117 562.868 475.591 563.5 474 563.5H446C444.409 563.5 442.883 562.868 441.757 561.743C440.632 560.617 440 559.091 440 557.5V529.5Z" fill="white"/>
<path d="M438.5 543.5H339Z" fill="white"/>
<path d="M438.5 543.5H339" stroke="white" stroke-width="2"/>
<path d="M439.5 544.5H438.47V542.5H439.5V544.5Z" fill="#3A414A" stroke="#3A414A" stroke-width="0.05"/>
<path d="M323.74 543.5L338 538.87V548.13L323.74 543.5Z" fill="white" stroke="white" stroke-width="2"/>
<path d="M680 612.5V608.68M680 601.04V593.4M680 585.76V578.13M680 570.49V562.84M680 555.2V547.57M680 539.93V532.29M680 524.64V517M680 509.37V501.74M680 494.1V486.46M680 478.82V475M680 612.47V613.5" stroke="#CCCCCC"/>
<path d="M681 475.03H679V474H681V475.03Z" fill="#3A414A" stroke="#3A414A" stroke-width="0.05"/>
<path d="M1 163.5H141M1.03 163.5H0" stroke="white" stroke-width="2"/>
<path d="M156.26 163.5L142 168.14V158.86L156.26 163.5Z" fill="white" stroke="white" stroke-width="2"/>
<path d="M16.5575 139.685C16.4957 142.216 15.1377 143.636 12.8538 144.006L17.1748 150.611H14.8291L10.8167 144.253H6.06365V150.611H4.02661V135.302C9.45871 135.488 16.6809 134.006 16.5575 139.685ZM6.06365 142.648C9.76735 142.525 14.5204 143.451 14.5204 139.747C14.5204 135.981 9.58217 137.154 6.06365 136.969V142.648Z" fill="white"/>
<path d="M24.3352 138.636C28.2241 138.636 29.6438 141.228 29.5204 145.179H21.1871C21.1871 147.648 22.0512 149.315 24.4587 149.377C26.0636 149.438 27.113 148.636 27.4833 147.586L29.2117 148.08C28.5327 149.809 26.9278 150.858 24.4587 150.858C20.8784 150.858 19.0266 148.574 19.0883 144.685C19.15 140.92 20.6932 138.636 24.3352 138.636ZM27.5451 143.636C27.9154 139.932 22.8537 138.883 21.5574 141.907C21.3722 142.34 21.1871 142.957 21.1871 143.636H27.5451Z" fill="white"/>
<path d="M39.4587 148.698C38.7796 150.056 37.6685 150.858 35.7549 150.858C32.4833 150.858 31.4957 148.451 31.434 144.809C31.434 141.167 32.4833 138.698 35.7549 138.636C37.7303 138.574 38.7179 139.5 39.4587 140.673C39.4587 139.994 39.3969 139.191 39.5821 138.698H41.434L41.3722 155.241H39.3969L39.4587 148.698ZM36.2488 149.315C38.7796 149.315 39.3969 147.278 39.3969 144.623C39.3969 141.969 38.9031 140.117 36.3105 140.117C33.8414 140.117 33.471 142.278 33.471 144.747C33.471 147.216 33.7796 149.315 36.2488 149.315Z" fill="white"/>
<path d="M48.0389 150.858C42.5451 151.105 44.7056 143.698 44.2735 138.883H46.2488V146.29C46.2488 148.204 46.6809 149.377 48.6562 149.315C53.1007 149.191 51.434 143.08 51.7426 138.883H53.6562L53.7179 150.611H51.8661C51.8044 149.994 51.9278 149.068 51.7426 148.574C51.0636 149.932 50.0142 150.796 48.0389 150.858Z" fill="white"/>
<path d="M61.3723 138.636C65.2612 138.636 66.681 141.228 66.5575 145.179H58.2242C58.2242 147.648 59.0884 149.315 61.4958 149.377C63.1007 149.438 64.1501 148.636 64.5205 147.586L66.2489 148.08C65.5698 149.809 63.9649 150.858 61.4958 150.858C57.9155 150.858 56.0637 148.574 56.1254 144.685C56.1871 140.92 57.7303 138.636 61.3723 138.636ZM64.5822 143.636C64.9526 139.932 59.8908 138.883 58.5945 141.907C58.4093 142.34 58.2242 142.957 58.2242 143.636H64.5822Z" fill="white"/>
<path d="M75.8784 141.784C75.6932 139.685 70.5698 139.438 70.508 141.784C71.434 145.056 77.6068 142.525 77.8537 147.339C78.1006 152.154 68.5945 151.907 68.1624 147.833L69.8907 147.525C70.1377 149.747 75.8784 150.302 75.9401 147.525C75.3228 144.068 68.9648 146.599 68.6562 141.969C68.4093 138.451 73.7179 138.08 76.187 139.377C76.9278 139.809 77.4833 140.549 77.6685 141.537" fill="white"/>
<path d="M82.2982 147.71C82.1747 149.191 83.4093 149.5 84.6439 149.068V150.549C82.6068 151.167 80.3229 150.858 80.3229 148.142V140.302H78.9648V138.883H80.4463L81.0019 136.228H82.2982V138.883H84.4587V140.302H82.2982V147.71Z" fill="white"/>
<path d="M240 612.5V608.96M240 601.86V594.79M240 587.69V580.62M240 573.52V569.99M240 612.47V613.5" stroke="#CCCCCC"/>
<path d="M241 570.03H239V569H241V570.03Z" fill="#3A414A" stroke="#3A414A" stroke-width="0.05"/>
<path d="M460 612.5V608.54M460 600.64V592.71M460 584.81V576.88M460 568.98V565.01M460 612.47V613.5" stroke="#CCCCCC"/>
<path d="M461 565.03H459V564H461V565.03Z" fill="#3A414A" stroke="#3A414A" stroke-width="0.05"/>
<path d="M680 391.25V414.5Z" fill="white"/>
<path d="M680 391.25V414.5" stroke="white" stroke-width="2"/>
<path d="M681 391.28H679V390.25H681V391.28Z" fill="#3A414A" stroke="#3A414A" stroke-width="0.05"/>
<path d="M680 429.76L675.37 415.5H684.63L680 429.76Z" fill="white" stroke="white" stroke-width="2"/>
<path d="M460 480V504.5Z" fill="white"/>
<path d="M460 480V504.5" stroke="white" stroke-width="2"/>
<path d="M461 480.03H459V479H461V480.03Z" fill="#3A414A" stroke="#3A414A" stroke-width="0.05"/>
<path d="M460 519.76L455.37 505.5H464.63L460 519.76Z" fill="white" stroke="white" stroke-width="2"/>
</svg>
