<svg xmlns="http://www.w3.org/2000/svg" xmlns:xlink="http://www.w3.org/1999/xlink" xmlns:lucid="lucid" width="800.08" height="499.92"><g transform="translate(-277 -83.08333333333331)" lucid:page-tab-id="0_0"><path d="M456.58 109.58a6 6 0 0 1 6-6h148a6 6 0 0 1 6 6v48a6 6 0 0 1-6 6h-148a6 6 0 0 1-6-6z" stroke="#000" stroke-opacity="0" fill="#e2e2f0"/><use xlink:href="#a" transform="matrix(1,0,0,1,461.58333333333337,108.58333333333331) translate(7.870370370370381 30.277777777777775)"/><use xlink:href="#b" transform="matrix(1,0,0,1,461.58333333333337,108.58333333333331) translate(127.31481481481481 30.277777777777775)"/><path d="M536.58 579v-4.33m0-8.67v-8.67m0-8.66V540m0-8.67v-8.66m0-8.67v-8.67m0-8.66v-4.34M536.58 578.97V580" stroke="#3a414a" stroke-width="2" fill="none"/><path d="M537.56 492.36h-1.95v-1.03h1.96z" stroke="#3a414a" stroke-width=".05" fill="#3a414a"/><path d="M536.58 438.33v-3.8m0-7.63v-7.63m0-7.62v-7.63m0-7.62v-3.82" stroke="#3a414a" stroke-width="2" fill="none"/><path d="M537.56 439.33h-1.95v-1.02h1.96zM537.56 392.6h-1.95v-1.02h1.96z" stroke="#3a414a" stroke-width=".05" fill="#3a414a"/><path d="M536.58 340.58v-3.95m0-7.92v-7.9m0-7.93v-7.9m0-7.93v-3.96" stroke="#3a414a" stroke-width="2" fill="none"/><path d="M537.56 341.58h-1.95v-1.02h1.96zM537.56 293.1h-1.95v-1.02h1.96z" stroke="#3a414a" stroke-width=".05" fill="#3a414a"/><path d="M536.58 240.08v-3.77m0-7.54v-7.55m0-7.54v-7.55m0-7.54V191m0-7.54v-7.55m0-7.54v-3.78" stroke="#3a414a" stroke-width="2" fill="none"/><path d="M537.56 241.08h-1.95v-1.02h1.96zM537.56 164.6h-1.95v-1.02h1.96z" stroke="#3a414a" stroke-width=".05" fill="#3a414a"/><path d="M456.58 247.58a6 6 0 0 1 6-6h148a6 6 0 0 1 6 6v38a6 6 0 0 1-6 6h-148a6 6 0 0 1-6-6z" stroke="#3a414a" fill="#fff"/><use xlink:href="#c" transform="matrix(1,0,0,1,468.58333333333337,253.58333333333334) translate(9.388888888888893 19.40277777777778)"/><use xlink:href="#d" transform="matrix(1,0,0,1,468.58333333333337,253.58333333333334) translate(63.70987654320988 19.40277777777778)"/><path d="M456.58 347.58a6 6 0 0 1 6-6h148a6 6 0 0 1 6 6v38a6 6 0 0 1-6 6h-148a6 6 0 0 1-6-6z" stroke="#000" stroke-opacity="0" fill="#fcb045"/><use xlink:href="#e" transform="matrix(1,0,0,1,468.58333333333337,353.58333333333337) translate(10.71604938271605 19.40277777777778)"/><use xlink:href="#f" transform="matrix(1,0,0,1,468.58333333333337,353.58333333333337) translate(68.61728395061729 19.40277777777778)"/><path d="M676.58 109.58a6 6 0 0 1 6-6h148a6 6 0 0 1 6 6v48a6 6 0 0 1-6 6h-148a6 6 0 0 1-6-6z" stroke="#000" stroke-opacity="0" fill="#e2e2f0"/><use xlink:href="#a" transform="matrix(1,0,0,1,681.5833333333334,108.58333333333331) translate(7.870370370370381 30.277777777777775)"/><use xlink:href="#g" transform="matrix(1,0,0,1,681.5833333333334,108.58333333333331) translate(127.31481481481481 30.277777777777775)"/><path d="M756.58 579v-4.32m0-8.64v-8.64m0-8.65v-8.64m0-8.63v-8.64m0-8.64v-8.65m0-8.65v-4.32M756.58 578.97V580" stroke="#3a414a" stroke-width="2" fill="none"/><path d="M757.56 492.6h-1.95v-1.02h1.96z" stroke="#3a414a" stroke-width=".05" fill="#3a414a"/><path d="M756.58 440.58v-3.95m0-7.92v-7.9m0-7.93v-7.9m0-7.93v-3.96" stroke="#3a414a" stroke-width="2" fill="none"/><path d="M757.56 441.58h-1.95v-1.02h1.96zM757.56 393.1h-1.95v-1.02h1.96z" stroke="#3a414a" stroke-width=".05" fill="#3a414a"/><path d="M756.58 340.08v-3.98m0-7.98v-7.98m0-7.98v-7.97m0-8v-7.97m0-7.98v-7.97m0-7.98v-7.98m0-7.97v-7.98m0-7.98v-8m0-7.96v-7.98m0-7.98v-7.98m0-7.97v-7.98m0-7.98v-4" stroke="#3a414a" stroke-width="2" fill="none"/><path d="M757.56 341.08h-1.95v-1.02h1.96zM757.56 164.6h-1.95v-1.02h1.96z" stroke="#3a414a" stroke-width=".05" fill="#3a414a"/><path d="M676.58 347.58a6 6 0 0 1 6-6h148a6 6 0 0 1 6 6v38a6 6 0 0 1-6 6h-148a6 6 0 0 1-6-6z" stroke="#3a414a" fill="#fff"/><use xlink:href="#c" transform="matrix(1,0,0,1,688.5833333333334,353.5833333333333) translate(9.388888888888893 19.40277777777778)"/><use xlink:href="#d" transform="matrix(1,0,0,1,688.5833333333334,353.5833333333333) translate(63.70987654320988 19.40277777777778)"/><path d="M676.58 447.58a6 6 0 0 1 6-6h148a6 6 0 0 1 6 6v38a6 6 0 0 1-6 6h-148a6 6 0 0 1-6-6z" stroke="#000" stroke-opacity="0" fill="#fcb045"/><use xlink:href="#e" transform="matrix(1,0,0,1,688.5833333333334,453.5833333333333) translate(10.71604938271605 19.40277777777778)"/><use xlink:href="#f" transform="matrix(1,0,0,1,688.5833333333334,453.5833333333333) translate(68.61728395061729 19.40277777777778)"/><path d="M617.58 360.3h40" stroke="#6db1ff" stroke-width="2" fill="none"/><path d="M617.6 361.26h-1.02v-1.95h1.03z" stroke="#6db1ff" stroke-width=".05" fill="#6db1ff"/><path d="M672.85 360.3l-14.27 4.62v-9.27z" stroke="#6db1ff" stroke-width="2" fill="#6db1ff"/><path d="M536.58 293.08v30" stroke="#6db1ff" stroke-width="2" fill="none"/><path d="M537.56 293.1h-1.95v-1.02h1.96z" stroke="#6db1ff" stroke-width=".05" fill="#6db1ff"/><path d="M536.58 338.35l-4.63-14.27h9.27z" stroke="#6db1ff" stroke-width="2" fill="#6db1ff"/><path d="M756.58 393.08v30" stroke="#6db1ff" stroke-width="2" fill="none"/><path d="M757.56 393.1h-1.95v-1.02h1.96z" stroke="#6db1ff" stroke-width=".05" fill="#6db1ff"/><path d="M756.58 438.35l-4.63-14.27h9.27z" stroke="#6db1ff" stroke-width="2" fill="#6db1ff"/><path d="M896.58 109.58a6 6 0 0 1 6-6h148a6 6 0 0 1 6 6v48a6 6 0 0 1-6 6h-148a6 6 0 0 1-6-6z" stroke="#000" stroke-opacity="0" fill="#e2e2f0"/><use xlink:href="#h" transform="matrix(1,0,0,1,901.5833333333334,108.58333333333331) translate(15.21604938271605 30.277777777777775)"/><use xlink:href="#i" transform="matrix(1,0,0,1,901.5833333333334,108.58333333333331) translate(57.191358024691354 30.277777777777775)"/><path d="M976.58 438.83v-4.03m0-8.07v-8.06m0-8.07v-8.06m0-8.07v-8.07m0-8.06v-8.07m0-8.06v-8.06m0-8.07V338m0-8.06v-8.07m0-8.06v-8.06m0-8.06v-8.07m0-8.06v-8.06m0-8.07v-8.06m0-8.06v-8.07m0-8.05v-8.07m0-8.07v-8.05m0-8.07v-8.06m0-8.07v-8.07m0-8.06v-4.04" stroke="#3a414a" stroke-width="2" fill="none"/><path d="M977.56 439.83h-1.95v-1.02h1.96zM977.56 164.6h-1.95v-1.02h1.96z" stroke="#3a414a" stroke-width=".05" fill="#3a414a"/><path d="M896.58 446.33a6 6 0 0 1 6-6h148a6 6 0 0 1 6 6v40.5a6 6 0 0 1-6 6h-148a6 6 0 0 1-6-6z" stroke="#3a414a" fill="#fff"/><use xlink:href="#j" transform="matrix(1,0,0,1,908.5833333333334,452.3333333333333) translate(16.827160493827165 19.59027777777778)"/><use xlink:href="#k" transform="matrix(1,0,0,1,908.5833333333334,452.3333333333333) translate(71.0246913580247 19.59027777777778)"/><path d="M837.58 454.45h40" stroke="#6db1ff" stroke-width="2" fill="none"/><path d="M837.6 455.43h-1.02v-1.95h1.03z" stroke="#6db1ff" stroke-width=".05" fill="#6db1ff"/><path d="M892.85 454.45l-14.27 4.64v-9.3z" stroke="#6db1ff" stroke-width="2" fill="#6db1ff"/><path d="M976.58 494.33v3.4m0 6.8v6.78m0 6.8v6.8m0 6.8v3.38" stroke="#3a414a" stroke-width="2" fill="none"/><path d="M977.56 494.36h-1.95v-1.03h1.96z" stroke="#3a414a" stroke-width=".05" fill="#3a414a"/><path d="M976.58 535.06v1.02M976.58 579v-3.56m0-7.1v-7.13m0-7.1v-7.12m0-7.12v-3.56M976.58 578.97V580M976.58 536.33v-1.03" stroke="#3a414a" stroke-width="2" fill="none"/><path d="M297.58 266.58h140M297.6 266.58h-1.02" stroke="#6db1ff" stroke-width="2" fill="none"/><path d="M452.85 266.58l-14.27 4.64v-9.27z" stroke="#6db1ff" stroke-width="2" fill="#6db1ff"/><use xlink:href="#l" transform="matrix(1,0,0,1,298.75811691425844,235.91666666666663) translate(0 17.777777777777775)"/><path d="M454.58 465.33H318.5" stroke="#fe7070" stroke-width="2" fill="none"/><path d="M455.58 466.3h-1.02v-1.94h1.02z" stroke="#fe7070" stroke-width=".05" fill="#fe7070"/><path d="M303.24 465.33l14.26-4.63v9.27z" stroke="#fe7070" stroke-width="2" fill="#fe7070"/><path d="M300 397.58a6 6 0 0 1 6-6h88a6 6 0 0 1 6 6V454a6 6 0 0 1-6 6h-88a6 6 0 0 1-6-6z" fill="none"/><use xlink:href="#m" transform="matrix(1,0,0,1,300,391.5833333333333) translate(0 25.611111111111114)"/><use xlink:href="#n" transform="matrix(1,0,0,1,300,391.5833333333333) translate(0 52.27777777777778)"/><path d="M895.08 480.8h-40" stroke="#fe7070" stroke-width="2" fill="none"/><path d="M896.08 481.78h-1.02v-1.95h1.02z" stroke="#fe7070" stroke-width=".05" fill="#fe7070"/><path d="M839.82 480.8l14.26-4.63v9.27z" stroke="#fe7070" stroke-width="2" fill="#fe7070"/><path d="M675.58 466.58h-23a6 6 0 0 1-6-6v-74.64a6 6 0 0 0-6-6h-5.5" stroke="#fe7070" stroke-width="2" fill="none"/><path d="M676.58 467.56h-1.02v-1.95h1.02z" stroke="#fe7070" stroke-width=".05" fill="#fe7070"/><path d="M619.82 379.94l14.26-4.64v9.27zM456.58 446.33a6 6 0 0 1 6-6h148a6 6 0 0 1 6 6v38a6 6 0 0 1-6 6h-148a6 6 0 0 1-6-6z" stroke="#fe7070" stroke-width="2" fill="#fe7070"/><g><use xlink:href="#o" transform="matrix(1,0,0,1,468.58333333333337,452.3333333333333) translate(2.8888888888888857 15.847222222222223)"/><use xlink:href="#p" transform="matrix(1,0,0,1,468.58333333333337,452.3333333333333) translate(60.07407407407407 15.847222222222223)"/></g><path d="M536.58 392.58v28.25" stroke="#fe7070" stroke-width="2" fill="none"/><path d="M537.56 392.6h-1.95v-1.02h1.96z" stroke="#fe7070" stroke-width=".05" fill="#fe7070"/><path d="M536.58 436.1l-4.63-14.27h9.27z" stroke="#fe7070" stroke-width="2" fill="#fe7070"/><path d="M820 506a6 6 0 0 1 6-6h88a6 6 0 0 1 6 6v28a6 6 0 0 1-6 6h-88a6 6 0 0 1-6-6z" fill="none"/><g><use xlink:href="#q" transform="matrix(1,0,0,1,820,500) translate(10.024691358024697 23.555555555555557)"/></g><defs><path fill="#3a414a" d="M240 0l2-218c-23 76-54 145-80 218h-23L58-218 59 0H30v-248h44l77 211c21-75 51-140 76-211h43V0h-30" id="r"/><path fill="#3a414a" d="M24-231v-30h32v30H24zM24 0v-190h32V0H24" id="s"/><path fill="#3a414a" d="M85-194c31 0 48 13 60 33l-1-100h32l1 261h-30c-2-10 0-23-3-31C134-8 116 4 85 4 32 4 16-35 15-94c0-66 23-100 70-100zm9 24c-40 0-46 34-46 75 0 40 6 74 45 74 42 0 51-32 51-76 0-42-9-74-50-73" id="t"/><path fill="#3a414a" d="M24 0v-261h32V0H24" id="u"/><path fill="#3a414a" d="M100-194c63 0 86 42 84 106H49c0 40 14 67 53 68 26 1 43-12 49-29l28 8c-11 28-37 45-77 45C44 4 14-33 15-96c1-61 26-98 85-98zm52 81c6-60-76-77-97-28-3 7-6 17-6 28h103" id="v"/><path fill="#3a414a" d="M206 0h-36l-40-164L89 0H53L-1-190h32L70-26l43-164h34l41 164 42-164h31" id="w"/><path fill="#3a414a" d="M141-36C126-15 110 5 73 4 37 3 15-17 15-53c-1-64 63-63 125-63 3-35-9-54-41-54-24 1-41 7-42 31l-33-3c5-37 33-52 76-52 45 0 72 20 72 64v82c-1 20 7 32 28 27v20c-31 9-61-2-59-35zM48-53c0 20 12 33 32 33 41-3 63-29 60-74-43 2-92-5-92 41" id="x"/><path fill="#3a414a" d="M114-163C36-179 61-72 57 0H25l-1-190h30c1 12-1 29 2 39 6-27 23-49 58-41v29" id="y"/><g id="a"><use transform="matrix(0.061728395061728385,0,0,0.061728395061728385,0,0)" xlink:href="#r"/><use transform="matrix(0.061728395061728385,0,0,0.061728395061728385,18.456790123456788,0)" xlink:href="#s"/><use transform="matrix(0.061728395061728385,0,0,0.061728395061728385,23.33333333333333,0)" xlink:href="#t"/><use transform="matrix(0.061728395061728385,0,0,0.061728395061728385,35.679012345679006,0)" xlink:href="#t"/><use transform="matrix(0.061728395061728385,0,0,0.061728395061728385,48.02469135802468,0)" xlink:href="#u"/><use transform="matrix(0.061728395061728385,0,0,0.061728395061728385,52.90123456790123,0)" xlink:href="#v"/><use transform="matrix(0.061728395061728385,0,0,0.061728395061728385,65.24691358024691,0)" xlink:href="#w"/><use transform="matrix(0.061728395061728385,0,0,0.061728395061728385,81.23456790123456,0)" xlink:href="#x"/><use transform="matrix(0.061728395061728385,0,0,0.061728395061728385,93.58024691358023,0)" xlink:href="#y"/><use transform="matrix(0.061728395061728385,0,0,0.061728395061728385,100.92592592592591,0)" xlink:href="#v"/></g><path fill="#3a414a" d="M205 0l-28-72H64L36 0H1l101-248h38L239 0h-34zm-38-99l-47-123c-12 45-31 82-46 123h93" id="z"/><use transform="matrix(0.061728395061728385,0,0,0.061728395061728385,0,0)" xlink:href="#z" id="b"/><path fill="#3a414a" d="M96-169c-40 0-48 33-48 73s9 75 48 75c24 0 41-14 43-38l32 2c-6 37-31 61-74 61-59 0-76-41-82-99-10-93 101-131 147-64 4 7 5 14 7 22l-32 3c-4-21-16-35-41-35" id="A"/><path fill="#3a414a" d="M100-194c62-1 85 37 85 99 1 63-27 99-86 99S16-35 15-95c0-66 28-99 85-99zM99-20c44 1 53-31 53-75 0-43-8-75-51-75s-53 32-53 75 10 74 51 75" id="B"/><g id="c"><use transform="matrix(0.06172839506172839,0,0,0.06172839506172839,0,0)" xlink:href="#A"/><use transform="matrix(0.06172839506172839,0,0,0.06172839506172839,11.11111111111111,0)" xlink:href="#B"/><use transform="matrix(0.06172839506172839,0,0,0.06172839506172839,23.45679012345679,0)" xlink:href="#t"/><use transform="matrix(0.06172839506172839,0,0,0.06172839506172839,35.80246913580247,0)" xlink:href="#v"/></g><path fill="#3a414a" d="M115-194c53 0 69 39 70 98 0 66-23 100-70 100C84 3 66-7 56-30L54 0H23l1-261h32v101c10-23 28-34 59-34zm-8 174c40 0 45-34 45-75 0-40-5-75-45-74-42 0-51 32-51 76 0 43 10 73 51 73" id="C"/><path fill="#3a414a" d="M101-234c-31-9-42 10-38 44h38v23H63V0H32v-167H5v-23h27c-7-52 17-82 69-68v24" id="D"/><g id="d"><use transform="matrix(0.06172839506172839,0,0,0.06172839506172839,0,0)" xlink:href="#C"/><use transform="matrix(0.06172839506172839,0,0,0.06172839506172839,12.345679012345679,0)" xlink:href="#v"/><use transform="matrix(0.06172839506172839,0,0,0.06172839506172839,24.691358024691358,0)" xlink:href="#D"/><use transform="matrix(0.06172839506172839,0,0,0.06172839506172839,30.864197530864196,0)" xlink:href="#B"/><use transform="matrix(0.06172839506172839,0,0,0.06172839506172839,43.20987654320987,0)" xlink:href="#y"/><use transform="matrix(0.06172839506172839,0,0,0.06172839506172839,50.55555555555555,0)" xlink:href="#v"/></g><path d="M141-36C126-15 110 5 73 4 37 3 15-17 15-53c-1-64 63-63 125-63 3-35-9-54-41-54-24 1-41 7-42 31l-33-3c5-37 33-52 76-52 45 0 72 20 72 64v82c-1 20 7 32 28 27v20c-31 9-61-2-59-35zM48-53c0 20 12 33 32 33 41-3 63-29 60-74-43 2-92-5-92 41" id="E"/><path d="M206 0h-36l-40-164L89 0H53L-1-190h32L70-26l43-164h34l41 164 42-164h31" id="F"/><path d="M24-231v-30h32v30H24zM24 0v-190h32V0H24" id="G"/><path d="M59-47c-2 24 18 29 38 22v24C64 9 27 4 27-40v-127H5v-23h24l9-43h21v43h35v23H59v120" id="H"/><g id="e"><use transform="matrix(0.06172839506172839,0,0,0.06172839506172839,0,0)" xlink:href="#E"/><use transform="matrix(0.06172839506172839,0,0,0.06172839506172839,12.345679012345679,0)" xlink:href="#F"/><use transform="matrix(0.06172839506172839,0,0,0.06172839506172839,28.333333333333332,0)" xlink:href="#E"/><use transform="matrix(0.06172839506172839,0,0,0.06172839506172839,40.67901234567901,0)" xlink:href="#G"/><use transform="matrix(0.06172839506172839,0,0,0.06172839506172839,45.55555555555556,0)" xlink:href="#H"/></g><path d="M117-194c89-4 53 116 60 194h-32v-121c0-31-8-49-39-48C34-167 62-67 57 0H25l-1-190h30c1 10-1 24 2 32 11-22 29-35 61-36" id="I"/><path d="M100-194c63 0 86 42 84 106H49c0 40 14 67 53 68 26 1 43-12 49-29l28 8c-11 28-37 45-77 45C44 4 14-33 15-96c1-61 26-98 85-98zm52 81c6-60-76-77-97-28-3 7-6 17-6 28h103" id="J"/><path d="M141 0L90-78 38 0H4l68-98-65-92h35l48 74 47-74h35l-64 92 68 98h-35" id="K"/><path d="M87 75C49 33 22-17 22-94c0-76 28-126 65-167h31c-38 41-64 92-64 168S80 34 118 75H87" id="L"/><path d="M33-261c38 41 65 92 65 168S71 34 33 75H2C39 34 66-17 66-93S39-220 2-261h31" id="M"/><g id="f"><use transform="matrix(0.06172839506172839,0,0,0.06172839506172839,0,0)" xlink:href="#I"/><use transform="matrix(0.06172839506172839,0,0,0.06172839506172839,12.345679012345679,0)" xlink:href="#J"/><use transform="matrix(0.06172839506172839,0,0,0.06172839506172839,24.691358024691358,0)" xlink:href="#K"/><use transform="matrix(0.06172839506172839,0,0,0.06172839506172839,35.80246913580247,0)" xlink:href="#H"/><use transform="matrix(0.06172839506172839,0,0,0.06172839506172839,41.97530864197531,0)" xlink:href="#L"/><use transform="matrix(0.06172839506172839,0,0,0.06172839506172839,49.32098765432099,0)" xlink:href="#M"/></g><path fill="#3a414a" d="M160-131c35 5 61 23 61 61C221 17 115-2 30 0v-248c76 3 177-17 177 60 0 33-19 50-47 57zm-97-11c50-1 110 9 110-42 0-47-63-36-110-37v79zm0 115c55-2 124 14 124-45 0-56-70-42-124-44v89" id="N"/><use transform="matrix(0.061728395061728385,0,0,0.061728395061728385,0,0)" xlink:href="#N" id="g"/><path fill="#3a414a" d="M30-248c87 1 191-15 191 75 0 78-77 80-158 76V0H30v-248zm33 125c57 0 124 11 124-50 0-59-68-47-124-48v98" id="O"/><path fill="#3a414a" d="M33 0v-248h34V0H33" id="P"/><g id="h"><use transform="matrix(0.061728395061728385,0,0,0.061728395061728385,0,0)" xlink:href="#z"/><use transform="matrix(0.061728395061728385,0,0,0.061728395061728385,14.814814814814813,0)" xlink:href="#O"/><use transform="matrix(0.061728395061728385,0,0,0.061728395061728385,29.629629629629626,0)" xlink:href="#P"/></g><path fill="#3a414a" d="M197 0v-115H63V0H30v-248h33v105h134v-105h34V0h-34" id="Q"/><path fill="#3a414a" d="M117-194c89-4 53 116 60 194h-32v-121c0-31-8-49-39-48C34-167 62-67 57 0H25l-1-190h30c1 10-1 24 2 32 11-22 29-35 61-36" id="R"/><g id="i"><use transform="matrix(0.061728395061728385,0,0,0.061728395061728385,0,0)" xlink:href="#Q"/><use transform="matrix(0.061728395061728385,0,0,0.061728395061728385,15.987654320987652,0)" xlink:href="#x"/><use transform="matrix(0.061728395061728385,0,0,0.061728395061728385,28.33333333333333,0)" xlink:href="#R"/><use transform="matrix(0.061728395061728385,0,0,0.061728395061728385,40.679012345679006,0)" xlink:href="#t"/><use transform="matrix(0.061728395061728385,0,0,0.061728395061728385,53.02469135802468,0)" xlink:href="#u"/><use transform="matrix(0.061728395061728385,0,0,0.061728395061728385,57.90123456790123,0)" xlink:href="#v"/><use transform="matrix(0.061728395061728385,0,0,0.061728395061728385,70.24691358024691,0)" xlink:href="#y"/></g><path fill="#3a414a" d="M210-169c-67 3-38 105-44 169h-31v-121c0-29-5-50-35-48C34-165 62-65 56 0H25l-1-190h30c1 10-1 24 2 32 10-44 99-50 107 0 11-21 27-35 58-36 85-2 47 119 55 194h-31v-121c0-29-5-49-35-48" id="S"/><g id="j"><use transform="matrix(0.06172839506172839,0,0,0.06172839506172839,0,0)" xlink:href="#S"/><use transform="matrix(0.06172839506172839,0,0,0.06172839506172839,18.456790123456788,0)" xlink:href="#x"/><use transform="matrix(0.06172839506172839,0,0,0.06172839506172839,30.80246913580247,0)" xlink:href="#s"/><use transform="matrix(0.06172839506172839,0,0,0.06172839506172839,35.67901234567901,0)" xlink:href="#R"/></g><g id="k"><use transform="matrix(0.06172839506172839,0,0,0.06172839506172839,0,0)" xlink:href="#A"/><use transform="matrix(0.06172839506172839,0,0,0.06172839506172839,11.11111111111111,0)" xlink:href="#B"/><use transform="matrix(0.06172839506172839,0,0,0.06172839506172839,23.45679012345679,0)" xlink:href="#t"/><use transform="matrix(0.06172839506172839,0,0,0.06172839506172839,35.80246913580247,0)" xlink:href="#v"/></g><path fill="#6db1ff" d="M233-177c-1 41-23 64-60 70L243 0h-38l-65-103H63V0H30v-248c88 3 205-21 203 71zM63-129c60-2 137 13 137-47 0-61-80-42-137-45v92" id="T"/><path fill="#6db1ff" d="M100-194c63 0 86 42 84 106H49c0 40 14 67 53 68 26 1 43-12 49-29l28 8c-11 28-37 45-77 45C44 4 14-33 15-96c1-61 26-98 85-98zm52 81c6-60-76-77-97-28-3 7-6 17-6 28h103" id="U"/><path fill="#6db1ff" d="M145-31C134-9 116 4 85 4 32 4 16-35 15-94c0-59 17-99 70-100 32-1 48 14 60 33 0-11-1-24 2-32h30l-1 268h-32zM93-21c41 0 51-33 51-76s-8-73-50-73c-40 0-46 35-46 75s5 74 45 74" id="V"/><path fill="#6db1ff" d="M84 4C-5 8 30-112 23-190h32v120c0 31 7 50 39 49 72-2 45-101 50-169h31l1 190h-30c-1-10 1-25-2-33-11 22-28 36-60 37" id="W"/><path fill="#6db1ff" d="M135-143c-3-34-86-38-87 0 15 53 115 12 119 90S17 21 10-45l28-5c4 36 97 45 98 0-10-56-113-15-118-90-4-57 82-63 122-42 12 7 21 19 24 35" id="X"/><path fill="#6db1ff" d="M59-47c-2 24 18 29 38 22v24C64 9 27 4 27-40v-127H5v-23h24l9-43h21v43h35v23H59v120" id="Y"/><g id="l"><use transform="matrix(0.061728395061728385,0,0,0.061728395061728385,0,0)" xlink:href="#T"/><use transform="matrix(0.061728395061728385,0,0,0.061728395061728385,15.987654320987652,0)" xlink:href="#U"/><use transform="matrix(0.061728395061728385,0,0,0.061728395061728385,28.33333333333333,0)" xlink:href="#V"/><use transform="matrix(0.061728395061728385,0,0,0.061728395061728385,40.679012345679006,0)" xlink:href="#W"/><use transform="matrix(0.061728395061728385,0,0,0.061728395061728385,53.02469135802468,0)" xlink:href="#U"/><use transform="matrix(0.061728395061728385,0,0,0.061728395061728385,65.37037037037035,0)" xlink:href="#X"/><use transform="matrix(0.061728395061728385,0,0,0.061728395061728385,76.48148148148147,0)" xlink:href="#Y"/></g><path fill="#fe7070" d="M240 0l2-218c-23 76-54 145-80 218h-23L58-218 59 0H30v-248h44l77 211c21-75 51-140 76-211h43V0h-30" id="Z"/><path fill="#fe7070" d="M100-194c62-1 85 37 85 99 1 63-27 99-86 99S16-35 15-95c0-66 28-99 85-99zM99-20c44 1 53-31 53-75 0-43-8-75-51-75s-53 32-53 75 10 74 51 75" id="aa"/><path fill="#fe7070" d="M85-194c31 0 48 13 60 33l-1-100h32l1 261h-30c-2-10 0-23-3-31C134-8 116 4 85 4 32 4 16-35 15-94c0-66 23-100 70-100zm9 24c-40 0-46 34-46 75 0 40 6 74 45 74 42 0 51-32 51-76 0-42-9-74-50-73" id="ab"/><path fill="#fe7070" d="M24-231v-30h32v30H24zM24 0v-190h32V0H24" id="ac"/><path fill="#fe7070" d="M101-234c-31-9-42 10-38 44h38v23H63V0H32v-167H5v-23h27c-7-52 17-82 69-68v24" id="ad"/><path fill="#fe7070" d="M100-194c63 0 86 42 84 106H49c0 40 14 67 53 68 26 1 43-12 49-29l28 8c-11 28-37 45-77 45C44 4 14-33 15-96c1-61 26-98 85-98zm52 81c6-60-76-77-97-28-3 7-6 17-6 28h103" id="ae"/><g id="m"><use transform="matrix(0.06172839506172839,0,0,0.06172839506172839,0,0)" xlink:href="#Z"/><use transform="matrix(0.06172839506172839,0,0,0.06172839506172839,18.456790123456788,0)" xlink:href="#aa"/><use transform="matrix(0.06172839506172839,0,0,0.06172839506172839,30.80246913580247,0)" xlink:href="#ab"/><use transform="matrix(0.06172839506172839,0,0,0.06172839506172839,43.148148148148145,0)" xlink:href="#ac"/><use transform="matrix(0.06172839506172839,0,0,0.06172839506172839,48.02469135802469,0)" xlink:href="#ad"/><use transform="matrix(0.06172839506172839,0,0,0.06172839506172839,54.19753086419753,0)" xlink:href="#ac"/><use transform="matrix(0.06172839506172839,0,0,0.06172839506172839,59.074074074074076,0)" xlink:href="#ae"/><use transform="matrix(0.06172839506172839,0,0,0.06172839506172839,71.41975308641976,0)" xlink:href="#ab"/></g><path fill="#fe7070" d="M233-177c-1 41-23 64-60 70L243 0h-38l-65-103H63V0H30v-248c88 3 205-21 203 71zM63-129c60-2 137 13 137-47 0-61-80-42-137-45v92" id="af"/><path fill="#fe7070" d="M135-143c-3-34-86-38-87 0 15 53 115 12 119 90S17 21 10-45l28-5c4 36 97 45 98 0-10-56-113-15-118-90-4-57 82-63 122-42 12 7 21 19 24 35" id="ag"/><path fill="#fe7070" d="M115-194c55 1 70 41 70 98S169 2 115 4C84 4 66-9 55-30l1 105H24l-1-265h31l2 30c10-21 28-34 59-34zm-8 174c40 0 45-34 45-75s-6-73-45-74c-42 0-51 32-51 76 0 43 10 73 51 73" id="ah"/><path fill="#fe7070" d="M117-194c89-4 53 116 60 194h-32v-121c0-31-8-49-39-48C34-167 62-67 57 0H25l-1-190h30c1 10-1 24 2 32 11-22 29-35 61-36" id="ai"/><g id="n"><use transform="matrix(0.06172839506172839,0,0,0.06172839506172839,0,0)" xlink:href="#af"/><use transform="matrix(0.06172839506172839,0,0,0.06172839506172839,15.987654320987653,0)" xlink:href="#ae"/><use transform="matrix(0.06172839506172839,0,0,0.06172839506172839,28.333333333333332,0)" xlink:href="#ag"/><use transform="matrix(0.06172839506172839,0,0,0.06172839506172839,39.44444444444444,0)" xlink:href="#ah"/><use transform="matrix(0.06172839506172839,0,0,0.06172839506172839,51.79012345679012,0)" xlink:href="#aa"/><use transform="matrix(0.06172839506172839,0,0,0.06172839506172839,64.1358024691358,0)" xlink:href="#ai"/><use transform="matrix(0.06172839506172839,0,0,0.06172839506172839,76.48148148148148,0)" xlink:href="#ag"/><use transform="matrix(0.06172839506172839,0,0,0.06172839506172839,87.5925925925926,0)" xlink:href="#ae"/></g><path d="M210-169c-67 3-38 105-44 169h-31v-121c0-29-5-50-35-48C34-165 62-65 56 0H25l-1-190h30c1 10-1 24 2 32 10-44 99-50 107 0 11-21 27-35 58-36 85-2 47 119 55 194h-31v-121c0-29-5-49-35-48" id="aj"/><path d="M100-194c62-1 85 37 85 99 1 63-27 99-86 99S16-35 15-95c0-66 28-99 85-99zM99-20c44 1 53-31 53-75 0-43-8-75-51-75s-53 32-53 75 10 74 51 75" id="ak"/><path d="M85-194c31 0 48 13 60 33l-1-100h32l1 261h-30c-2-10 0-23-3-31C134-8 116 4 85 4 32 4 16-35 15-94c0-66 23-100 70-100zm9 24c-40 0-46 34-46 75 0 40 6 74 45 74 42 0 51-32 51-76 0-42-9-74-50-73" id="al"/><path d="M101-234c-31-9-42 10-38 44h38v23H63V0H32v-167H5v-23h27c-7-52 17-82 69-68v24" id="am"/><path d="M179-190L93 31C79 59 56 82 12 73V49c39 6 53-20 64-50L1-190h34L92-34l54-156h33" id="an"/><g id="o"><use transform="matrix(0.04938271604938272,0,0,0.04938271604938272,0,0)" xlink:href="#aj"/><use transform="matrix(0.04938271604938272,0,0,0.04938271604938272,14.765432098765434,0)" xlink:href="#ak"/><use transform="matrix(0.04938271604938272,0,0,0.04938271604938272,24.641975308641978,0)" xlink:href="#al"/><use transform="matrix(0.04938271604938272,0,0,0.04938271604938272,34.51851851851852,0)" xlink:href="#G"/><use transform="matrix(0.04938271604938272,0,0,0.04938271604938272,38.41975308641975,0)" xlink:href="#am"/><use transform="matrix(0.04938271604938272,0,0,0.04938271604938272,43.358024691358025,0)" xlink:href="#an"/></g><path d="M114-163C36-179 61-72 57 0H25l-1-190h30c1 12-1 29 2 39 6-27 23-49 58-41v29" id="ao"/><path d="M135-143c-3-34-86-38-87 0 15 53 115 12 119 90S17 21 10-45l28-5c4 36 97 45 98 0-10-56-113-15-118-90-4-57 82-63 122-42 12 7 21 19 24 35" id="ap"/><path d="M115-194c55 1 70 41 70 98S169 2 115 4C84 4 66-9 55-30l1 105H24l-1-265h31l2 30c10-21 28-34 59-34zm-8 174c40 0 45-34 45-75s-6-73-45-74c-42 0-51 32-51 76 0 43 10 73 51 73" id="aq"/><g id="p"><use transform="matrix(0.04938271604938272,0,0,0.04938271604938272,0,0)" xlink:href="#ao"/><use transform="matrix(0.04938271604938272,0,0,0.04938271604938272,5.8765432098765435,0)" xlink:href="#J"/><use transform="matrix(0.04938271604938272,0,0,0.04938271604938272,15.753086419753087,0)" xlink:href="#ap"/><use transform="matrix(0.04938271604938272,0,0,0.04938271604938272,24.641975308641978,0)" xlink:href="#aq"/><use transform="matrix(0.04938271604938272,0,0,0.04938271604938272,34.51851851851852,0)" xlink:href="#ak"/><use transform="matrix(0.04938271604938272,0,0,0.04938271604938272,44.39506172839506,0)" xlink:href="#I"/><use transform="matrix(0.04938271604938272,0,0,0.04938271604938272,54.27160493827161,0)" xlink:href="#ap"/><use transform="matrix(0.04938271604938272,0,0,0.04938271604938272,63.1604938271605,0)" xlink:href="#J"/></g><g id="q"><use transform="matrix(0.049382716049382706,0,0,0.049382716049382706,0,0)" xlink:href="#af"/><use transform="matrix(0.049382716049382706,0,0,0.049382716049382706,12.790123456790122,0)" xlink:href="#ae"/><use transform="matrix(0.049382716049382706,0,0,0.049382716049382706,22.666666666666664,0)" xlink:href="#ag"/><use transform="matrix(0.049382716049382706,0,0,0.049382716049382706,31.55555555555555,0)" xlink:href="#ah"/><use transform="matrix(0.049382716049382706,0,0,0.049382716049382706,41.43209876543209,0)" xlink:href="#aa"/><use transform="matrix(0.049382716049382706,0,0,0.049382716049382706,51.30864197530863,0)" xlink:href="#ai"/><use transform="matrix(0.049382716049382706,0,0,0.049382716049382706,61.185185185185176,0)" xlink:href="#ag"/><use transform="matrix(0.049382716049382706,0,0,0.049382716049382706,70.07407407407406,0)" xlink:href="#ae"/></g></defs></g></svg>